<?xml version="1.0" encoding="utf-8"?>
<!-- Generator: Adobe Illustrator 28.3.0, SVG Export Plug-In . SVG Version: 6.00 Build 0)  -->
<svg version="1.1" id="Capa_1" xmlns="http://www.w3.org/2000/svg" xmlns:xlink="http://www.w3.org/1999/xlink" x="0px" y="0px"
	 viewBox="0 0 2939 1022" style="enable-background:new 0 0 2939 1022;" xml:space="preserve">
<style type="text/css">
	.st0{fill-rule:evenodd;clip-rule:evenodd;fill:#010002;}
	.st1{fill:#010002;}
	.st2{fill:#0252A6;}
	.st3{fill:#FFFFFF;}
	.st4{fill:#DBA888;}
	.st5{fill:#606060;}
</style>
<g>
	<g>
		<g>
			<path class="st2" d="M2844.9,116.1c1.1-6.9,1.1-13.8,0-20.7c-0.8-3.8-3.4-6.9-7-8.2l6-49h92.1l-27.4,224.1
				c-1.1,5.3-0.9,10.7,0.4,16c1.2,3.5,4,6.3,7.5,7.5l-6.1,49.1h-88.4l1.8-15c-8.6,5.5-17.9,9.7-27.7,12.5c-9.8,2.8-19.8,4.2-30,4.2
				c-21.4,0-36.1-5.5-43.9-16.3c-7.9-10.8-10.3-29.5-7-56.2l8.3-68c3.7-31,10.9-52.3,21.6-63.9c10.6-11.5,26.9-17.3,48.7-17.3
				c8.4,0,16.9,1.1,25,3.1c8.6,2.1,17,5.1,25,9.1L2844.9,116.1z M2825.4,275.6l12.4-99.7c-2.1-1.2-4.4-2.1-6.8-2.7
				c-2.1-0.5-4.2-0.9-6.4-1c-5.4-0.5-10.6,1.6-14.3,5.5c-4.2,7.5-6.5,15.9-6.8,24.5l-5.8,47.5c-1.6,7.5-1.1,15.3,1.4,22.5
				c3.1,4.4,8.4,6.8,13.8,6c2,0,4-0.2,6-0.7c2.2-0.5,4.4-1.2,6.5-2 M2599.7,334.4l-0.4-18.7c-7.3,7.4-16,13.2-25.6,16.9
				c-10.6,3.7-21.8,5.5-33,5.2c-19.2,0-33.4-5.4-42.7-16.3c-9.2-10.9-12.7-26.3-10.2-46.2c4-32.7,44-59.7,120-81l5.6-1.5l0.5-4
				c1.3-6.4,0.8-13.1-1.5-19.3c-1.9-4.2-6.3-6.7-10.9-6.3c-5-0.2-9.7,2.2-12.5,6.3c-3.7,5.8-5.8,12.4-6.1,19.3l-0.5,4h-75l6.3-51.4
				c14.1-9.6,29.7-16.8,46.2-21.2c18.4-5.1,37.5-7.6,56.6-7.5c30,0,51.5,6.4,63.8,19c12.3,12.7,16.6,33.1,13.2,61.2l-8.1,66.6
				c-1.2,5.8-1.2,11.8,0,17.5c0.9,3.7,3.4,6.8,6.8,8.4l-6,49L2599.7,334.4z M2603.4,274.5l4.2-34.3c-10.5,3.3-20.4,8.1-29.6,14.1
				c-4.1,3.2-6.8,7.8-7.5,13c-0.8,4,0,8.1,2.1,11.6c2.3,2.8,5.8,4.3,9.4,4c3.7,0,7.4-0.7,10.8-2.1c3.7-1.6,7.2-3.7,10.3-6.3
				 M2399.1,116.1c1.1-6.9,1.1-13.8,0-20.7c-0.7-3.8-3.4-6.9-7-8.2l6-49h91.7l-27.4,224.1c-1,5.3-0.8,10.8,0.5,16
				c1.2,3.5,4,6.3,7.5,7.5l-6,49.1h-88.5l1.8-15c-8.6,5.5-17.9,9.7-27.7,12.5c-9.8,2.8-19.8,4.2-30,4.2c-21.4,0-36-5.5-43.9-16.3
				s-10.2-29.5-7-56.2l8.3-68c3.8-31,11-52.3,21.7-63.9c10.6-11.5,26.9-17.3,48.7-17.3c8.4,0,16.8,1.1,25,3.1c8.6,2.1,17,5.2,25,9.1
				L2399.1,116.1z M2379.6,275.6l12-99.7c-2.1-1.2-4.4-2.1-6.7-2.7c-2.1-0.5-4.3-0.9-6.4-1c-5.3-0.5-10.6,1.6-14.2,5.5
				c-4.2,7.5-6.6,15.9-6.9,24.5l-5.8,47.5c-1.7,7.5-1.2,15.3,1.4,22.5c3.1,4.4,8.4,6.8,13.7,6c2,0,4-0.2,6-0.7
				c2.2-0.5,4.5-1.2,6.6-2 M2260.4,70c-1.3,9.8-6.7,18.5-15,23.9c-9.5,6.6-20.8,9.9-32.3,9.6c-10.8,0.6-21.5-2.8-30-9.6
				c-7-5.8-10.4-14.8-9-23.8c1.4-9.6,6.8-18.2,15-23.5c9.5-6.6,20.8-10,32.3-9.7c10.8-0.6,21.5,2.9,30,9.7
				c7.1,5.7,10.7,14.8,9.4,23.8 M2238.4,257.2c-1.1,6.5-1.1,13,0,19.5c0.6,3.8,2.8,7.2,6.1,9.1l-6,49h-101.9l6-49
				c4.1-1.3,7.4-4.4,9.1-8.3c2.8-6,4.4-12.5,4.9-19.1l8.8-69.4c1.1-5.2,1.1-10.5,0-15.7c-1.3-3.4-4.1-6.2-7.5-7.5l6-49h92.1
				L2238.4,257.2z M1933.5,310.1l7-57h76.9l-0.7,9.6c-1.4,6.4-0.9,13.1,1.4,19.2c2.5,3.9,6.9,6,11.5,5.5c4.6,0.1,9.1-1.6,12.5-4.6
				c3.4-3.2,5.6-7.5,5.9-12.1c1.3-11.1-11.9-20-39.7-26.6c-27.8-6.6-45.3-14.3-52.5-23c-7.5-8.9-10.6-22.5-8.4-40.5
				c1.4-20.2,11.7-38.7,28-50.6c15.9-11.2,38.5-16.8,67.5-16.8c17.9-0.1,35.8,2.4,53,7.5c15.2,4.4,29.5,11.6,42,21.2l-6.3,51.4
				h-75.7l1.3-10.7c1-5.2,0.3-10.7-2.2-15.4c-2.4-3.7-6.7-5.8-11.1-5.5c-4.5,0.1-8.8,1.8-12.1,4.8c-3.5,2.9-5.8,7.1-6.3,11.6
				c-1.1,9.5,10.3,17,34.4,22.5h0.4c29.4,6.7,48.5,15,57.2,24.1c8.7,9.1,11.9,23.5,9.7,42.2c-3,24.6-12.5,42.7-28.6,54.3
				s-39.7,17.4-70.7,17.4c-17.6,0.1-35.1-2.5-52-7.5c-15.1-4.4-29.4-11.6-41.9-21.1 M1884.8,257.1c-1.2,6.6-1.2,13.4,0,20
				c0.8,4,3.7,7.3,7.5,8.6l-6,49h-102.9l6.1-49c4-1.4,7.3-4.4,9-8.3c2.8-6,4.5-12.5,5-19.1l8.5-69.2c0.9-5.2,0.8-10.5-0.4-15.6
				c-1.3-3.5-4-6.2-7.5-7.5l6-49h86.7l-2.1,17.1c4.9-6.6,11-12.2,18-16.4c6.2-3.5,13.2-5.3,20.2-5.2c1.5,0,3,0.2,4.4,0.4
				c1.7,0,3.6,0.6,5.3,1l-8.4,73.6h-8.8c-9.5-0.5-18.7,3.2-25.3,10.1c-6.9,8.9-11,19.7-11.7,31L1884.8,257.1z M1658,262.5
				c-1.4,6.7-1.1,13.7,1.1,20.2c2.3,4.1,6.9,6.4,11.6,5.8c5,0.3,9.8-1.9,12.9-5.8c3.7-6.1,5.9-13,6.3-20.1l0.7-5.8h80.8l-6.6,53.8
				c-13.3,9.8-28.4,16.8-44.4,20.7c-19.8,5.1-40.2,7.6-60.7,7.5c-33.6,0-56.5-5.9-68.8-17.7c-12.3-11.8-16.7-32.3-13.2-61.6
				l8.1-66.2c3.6-29.7,13.2-50.4,28.6-62s41.3-17.4,77.8-17.4c35.8,0,60.2,6.3,73,18.9c12.8,12.6,17.3,34.7,13.4,66.2l-5.3,43.8
				h-112.5L1658,262.5z M1667,189.1l-1.1,7.5h31.9l1-7.9c1.5-6.6,1-13.4-1.3-19.8c-2.4-4-6.9-6.3-11.5-5.7c-5-0.4-9.9,1.8-13,5.8
				c-3.6,5.9-5.7,12.7-6.1,19.6 M1406.7,334.3l-24.9-145.2c-0.7-5.6-2.2-11.1-4.4-16.3c-1.3-3-3.6-5.5-6.5-7l5.9-48.7h100.5l-6,48.7
				c-2,0.5-3.8,1.7-4.9,3.4c-1.3,2.1-2.1,4.5-2.3,6.9c-0.1,1.6-0.1,3.2,0,4.8c0,1.6,0,3.6,0,5.9l5.9,78.7l24.8-78.7
				c0.6-2.3,1.2-4.4,1.6-6.1c0.3-1.2,0.5-2.5,0.7-3.7c0.5-2.5,0.3-5.1-0.7-7.5c-1.1-1.9-2.9-3.3-5-4l5.9-48.7h88.2l-6,48.7
				c-3.1,1.4-5.7,3.6-7.5,6.4c-2.9,4.1-5.4,8.4-7.5,13L1502,334.3L1406.7,334.3z M1363.6,70.1c-1.3,9.8-6.7,18.5-15,23.9
				c-9.5,6.6-20.8,9.9-32.3,9.6c-10.8,0.6-21.5-2.8-30-9.6c-7.1-5.8-10.7-14.9-9.4-23.9c1.3-9.7,6.8-18.4,15-23.8
				c9.5-6.6,20.8-10,32.4-9.7c10.8-0.6,21.5,2.9,30,9.7c7.2,5.7,10.8,14.8,9.4,23.8 M1341.9,256.9c-1,6.5-1,13,0,19.5
				c0.7,3.8,2.9,7.1,6.2,9.1l-6,49h-102.2l6-49c4.1-1.3,7.4-4.4,9.1-8.3c2.8-6,4.5-12.5,5-19.1l8.5-69.1c0.9-5.2,0.8-10.5-0.4-15.7
				c-1.3-3.5-4-6.2-7.5-7.5l6-49h92.1L1341.9,256.9z M1108.1,256.9c-1.1,6.4-1.1,12.9,0,19.3c0.6,3.9,2.9,7.4,6.4,9.4l-6,49h-101.9
				l6-49c4.1-1.3,7.4-4.4,9.1-8.3c2.8-6,4.4-12.5,4.9-19.1l8.5-69.1c0.9-5.2,0.7-10.6-0.6-15.7c-1.3-3.5-4-6.2-7.5-7.5l6-49h88.6
				l-1.8,15c8.7-5.7,18.1-10,28-12.9c9.7-2.8,19.8-4.3,30-4.3c21.2,0,35.9,5.4,43.9,16.3c8,10.9,10.4,29,7.5,54.7l-8.8,71.8
				c-1.2,6.8-1.3,13.8-0.4,20.7c0.8,3.4,3.3,6.2,6.6,7.5l-6,49h-86.9c-0.7-9.1-0.7-18.2,0-27.2c0.6-10.9,2.7-30.3,6.1-58l5.8-47.5
				c1.7-7.7,1.2-15.6-1.3-23c-3-4.4-8.2-6.7-13.4-6.1c-1.9,0-3.9,0.2-5.8,0.6c-2.6,0.5-5.1,1.2-7.5,2.2L1108.1,256.9z M919.2,117.2
				c1.1-6.3,1.1-12.7,0-19c-1-3.6-3.6-6.6-7-8.1l6.4-52h105.7l-6.4,52c-4.1,1.8-7.5,4.9-9.6,8.9c-2.6,5.8-4.2,12.1-4.7,18.4
				L990.8,222c-1.7,16.7-4.5,33.2-8.4,49.5c-2.4,8.9-6,17.3-10.9,25.1c-9.7,14.9-23.7,26.6-40.1,33.5c-19.9,7.8-41.1,11.5-62.5,10.9
				c-18.2,0.5-36.4-2.8-53.3-9.4c-13.4-5.4-24.7-15-32.1-27.4c-4.3-7.5-7-15.7-7.9-24.3c-0.9-12.8-0.3-25.6,1.6-38.3l2.2-15.8
				l13.3-108.5c1-6,0.7-12.3-1-18.1c-1.7-4.1-4.9-7.3-9-9l6.4-52h113.4l-6.4,51.7c-3.8,1.6-7,4.5-9,8.2c-2.6,6.1-4.1,12.5-4.6,19.1
				l-16,130.5c-1.6,7.5-1.1,15.3,1.4,22.5c2.8,4.6,8,7.2,13.3,6.5c5.8,0.4,11.4-2.1,15-6.7c4.1-6.8,6.5-14.5,6.9-22.5L919.2,117.2z"
				/>
		</g>
		<g>
			<path class="st2" d="M2878.9,558.7c-1,5.9-1,12,0,17.9c0.7,3.4,3.2,6.3,6.4,7.5l-5.4,44h-91.5l5.3-44c3.7-1.2,6.7-3.9,8.2-7.5
				c2.5-5.4,4-11.2,4.4-17.2l7.5-62c0.8-4.6,0.7-9.4-0.4-13.9c-1.2-3.1-3.7-5.5-6.7-6.7l5.4-43.9h77.9l-1.9,15
				c4.3-6,9.8-11.1,16.1-15c5.5-3.1,11.8-4.8,18.1-4.7c1.3-0.1,2.7-0.1,4,0c1.6,0.2,3.2,0.5,4.7,0.9l-7.9,67.4h-7.9
				c-8.5-0.4-16.7,2.9-22.5,9.1c-6.2,8-9.8,17.7-10.5,27.7L2878.9,558.7z M2676.5,563.9c-1.3,6-0.9,12.2,1,18.1
				c2.1,3.7,6.2,5.7,10.4,5.2c4.5,0.3,8.8-1.7,11.5-5.2c3.3-5.4,5.3-11.6,5.6-18l0.6-5.2h72.5l-5.9,48.2
				c-11.9,8.8-25.4,15.1-39.8,18.6c-17.8,4.4-36,6.6-54.4,6.4c-30,0-50.6-5.3-61.7-15.9c-11.1-10.6-15-29-11.8-55.2l7.5-59.4
				c3.3-26.6,11.8-45.2,25.6-55.6s37-15.6,69.7-15.7c32.2,0,53.9,5.7,65.4,16.9s15.5,31,12.1,59.4l-4.8,39.2h-101.3L2676.5,563.9z
				 M2684.6,498.1l-0.9,7.5h28.6l0.9-7.5c1.3-5.9,0.9-12.1-1.1-17.8c-2.1-3.6-6.2-5.6-10.3-5.1c-4.5-0.3-8.9,1.7-11.6,5.2
				C2686.8,485.8,2684.9,491.9,2684.6,498.1 M2520.7,432.9c1-6.2,1-12.4,0-18.6c-0.6-3.5-3-6.3-6.3-7.5l5.4-44h82.5l-24.6,201.2
				c-0.9,4.8-0.7,9.6,0.4,14.3c1.3,3,3.7,5.3,6.8,6.4l-5.4,44.1h-79.4l1.6-13.3c-7.7,4.9-16,8.8-24.8,11.3
				c-8.8,2.5-17.9,3.8-27.1,3.7c-19.2,0-32.3-4.9-39.4-14.6c-7.1-9.7-9.1-26.5-6.2-50.4l7.5-61c3.4-27.7,9.8-46.9,19.3-57.1
				c9.5-10.3,24.1-15.6,43.7-15.6c7.6,0,15.1,1,22.5,2.8c7.8,1.9,15.3,4.6,22.5,8.1L2520.7,432.9z M2503.3,575.4l11.1-89.4
				c-1.9-1.1-4-1.9-6.1-2.5c-1.9-0.5-3.8-0.8-5.8-0.9c-4.8-0.4-9.5,1.4-12.8,4.9c-3.8,6.7-5.9,14.3-6.1,22l-5.2,42.6
				c-1.5,6.7-1.1,13.8,1.3,20.2c2.7,4,7.5,6.1,12.3,5.5c1.8,0,3.6-0.2,5.4-0.6C2499.4,576.8,2501.3,576.2,2503.3,575.4
				 M2278.3,558.7c-0.9,5.7-0.9,11.5,0,17.2c0.6,3.5,2.7,6.6,5.8,8.4l-5.4,44h-91.2l5.4-44c3.7-1.2,6.6-3.9,8.1-7.5
				c2.5-5.4,4-11.2,4.5-17.2l7.5-62c0.9-4.6,0.8-9.4-0.4-13.9c-1.2-3.1-3.6-5.5-6.7-6.7l5.3-43.9h79.5l-1.6,13.3
				c7.8-5.1,16.2-9,25.1-11.5c8.7-2.6,17.7-3.9,26.7-3.9c19,0,32.2,4.9,39.4,14.6c7.1,9.7,9.4,26,6.6,49l-7.9,64.4
				c-1.1,6.1-1.3,12.4-0.4,18.6c0.8,3.1,3,5.6,5.9,6.7l-5.3,44h-77.6c-0.6-8.1-0.6-16.3,0-24.4c0.6-9.8,2.5-27.1,5.5-52l5.2-42.6
				c1.5-6.9,1.1-14-1.3-20.6c-2.6-3.9-7.2-6-11.9-5.4c-1.7,0-3.5,0.2-5.2,0.5c-2.3,0.4-4.5,1-6.7,1.9L2278.3,558.7z M2093.8,628.3
				v-16.8c-6.5,6.6-14.4,11.7-23,15c-9.5,3.3-19.5,4.9-29.5,4.7c-14.4,1.1-28.4-4.4-38.2-15c-8.2-10-11.3-23.8-9.1-41.4
				c3.6-29.3,39.5-53.5,107.7-72.7l5-1.3l0.4-3.7c1.2-5.8,0.7-11.7-1.3-17.2c-1.8-3.7-5.7-6-9.8-5.6c-4.5-0.2-8.7,1.9-11.2,5.6
				c-3.2,5.2-5.1,11.1-5.5,17.2l-0.4,3.7h-67.5l5.6-46c12.7-8.4,26.6-14.6,41.3-18.4c16.5-4.6,33.6-6.8,50.8-6.7
				c27.1,0,46.1,5.7,57.1,17.1c11,11.4,14.9,29.7,11.8,54.8l-7.5,60c-1,5.2-1,10.5,0,15.7c0.8,3.3,3.1,6,6.1,7.5l-5.4,44
				L2093.8,628.3z M2097.3,574.7l3.7-30.7c-9.4,3-18.4,7.2-26.7,12.4c-3.6,2.9-5.9,7.1-6.4,11.6c-0.8,3.6-0.1,7.3,1.9,10.4
				c2.1,2.4,5.2,3.8,8.4,3.5c3.3,0,6.6-0.6,9.7-1.9c3.4-1.4,6.5-3.3,9.3-5.6 M1971.1,627.7c-6,1.4-12.1,2.4-18.2,3.1
				c-6,0.7-12.1,1.1-18.1,1c-22.5,0-37.5-4.7-45.7-14.2c-8.2-9.5-10.6-26.5-7.5-50.7l10.9-89h-8.8l5.5-45h8.8l4.6-37.5l75.5-20.4
				l-7,57.6h24.2l-5.5,45h-24.2l-8.2,67.5c-2.2,18-1.8,29,1,33.2c4.8,4.9,11.6,7.3,18.4,6.6L1971.1,627.7z M1748.5,558.7
				c-0.9,5.7-0.9,11.5,0,17.2c0.6,3.5,2.7,6.6,5.8,8.4l-5.3,44h-91.2l5.3-44c3.7-1.2,6.7-3.9,8.2-7.5c2.5-5.4,4-11.2,4.4-17.2
				l7.5-62c0.9-4.6,0.9-9.3,0-13.9c-1.2-3.1-3.7-5.5-6.7-6.7l5.4-43.9h79.2l-1.6,13.3c7.7-5,16-8.9,24.8-11.5
				c8.7-2.6,17.7-3.9,26.7-3.9c19,0,32.2,4.9,39.4,14.6c7.1,9.7,9.4,26,6.6,49l-7.5,64.4c-1.1,6.1-1.3,12.4-0.4,18.6
				c0.7,3.1,3,5.6,5.9,6.7l-5.4,44h-77.8c-0.6-8.1-0.6-16.3,0-24.4c0.6-10,2.4-27.3,5.5-52l5.2-42.6c1.5-6.8,1.1-14-1.2-20.6
				c-2.7-3.9-7.3-6-12-5.4c-1.7,0-3.5,0.2-5.2,0.5c-2.3,0.4-4.5,1-6.6,1.9L1748.5,558.7z M1564,628.3l-0.4-16.8
				c-6.5,6.6-14.4,11.7-23,15c-9.5,3.3-19.5,4.9-29.5,4.7c-14.4,1.1-28.5-4.4-38.2-15c-8.3-10-11.4-23.8-9.2-41.4
				c3.6-29.3,39.5-53.5,107.7-72.7l5.1-1.3l0.4-3.7c1.1-5.8,0.7-11.7-1.3-17.2c-1.8-3.8-5.7-6-9.9-5.6c-4.5-0.1-8.7,2-11.2,5.6
				c-3.2,5.2-5.1,11.1-5.5,17.2l-0.4,3.7H1481l5.6-46c12.8-8.4,26.9-14.7,41.7-18.4c16.5-4.6,33.6-6.8,50.8-6.7
				c27.1,0,46.1,5.7,57.1,17.1c11,11.4,15,30,11.9,54.8l-7.5,60c-1,5.2-1,10.5,0,15.7c0.8,3.3,3,6,6.1,7.5l-4.9,43.5L1564,628.3z
				 M1567.3,574.7l3.7-30.7c-9.4,3-18.4,7.2-26.8,12.4c-3.6,2.9-5.9,7-6.4,11.6c-0.7,3.6-0.1,7.3,1.9,10.4c2.1,2.5,5.2,3.8,8.5,3.5
				c3.3,0,6.6-0.6,9.7-1.9c3.3-1.4,6.4-3.3,9.2-5.6 M1248.8,604.5l8.9-73h80.5l-1.8,14.6c-1.7,7.7-1.4,15.7,0.9,23.2
				c2.5,4.3,7.5,6.7,12.4,6.1c5.1,0.1,10-2.1,13.3-6.1c3.9-4.9,6.2-10.9,6.6-17.1c1.7-13.7-10-24.5-35.2-32.2l-10.9-3.5
				c-27.1-8.9-44.4-18.7-51.6-29.2c-7.2-10.5-9.5-25.9-7-46.3c3.5-29,13.9-50.3,31-63.9s42.1-20.4,75-20.5c17.6-0.1,35.1,2.5,52,7.5
				c15.8,4.8,30.7,12.2,44.1,22l-8.1,66.1h-77.8l1.4-12.1c1.3-6.5,0.6-13.3-1.9-19.5c-2.3-4.4-6.9-7-11.8-6.7
				c-4.8-0.3-9.6,1.4-13.2,4.6c-3.5,3.9-5.5,8.8-5.8,14c-1.5,11.8,11,21.7,37.5,29.5l5,1.6c29.3,8.8,47.6,19.1,55,30.7
				c7.4,11.6,9.5,30,6.5,54.3c-3.5,28.6-14.2,49.9-32,63.7c-17.8,13.8-43.3,20.8-76.6,20.8c-18.7,0.2-37.4-2.3-55.4-7.5
				c-14.9-4.1-28.7-11.4-40.6-21.2"/>
		</g>
		<g>
			<path class="st2" d="M2779.5,798.5l7.5-39.4h43.3l-1.6,8.3c-1,4.1-1.3,8.3-0.7,12.5c1.6,2.1,4.1,3.3,6.7,3.1
				c2.7-0.1,5.3-1.2,7.2-3.1c2.3-2.7,3.8-5.9,4.4-9.3c1.6-7.3-4.7-13.2-17.6-17.6c-1.8-0.5-3.6-1.1-5.4-1.9
				c-14.3-4.7-23.4-10-26.4-15.8c-3.8-7.6-4.5-16.4-2.1-24.6c1.8-13.3,8.6-25.4,18.9-33.9c11.9-8.1,26.2-12.1,40.6-11.2
				c9.2,0,18.4,1.2,27.2,3.7c8.4,2.8,16.2,7,23.1,12.4l-6.8,35.3h-42l1.3-5.9c0.8-3.5,0.8-7.2,0-10.7c-1.2-2.4-3.6-3.8-6.3-3.6
				c-2.4-0.2-4.7,0.7-6.4,2.4c-1.9,2.2-3.2,4.9-3.6,7.8c-1.3,6.4,4.9,11.9,18.3,15.5c1.1,0,2.1,1.1,2.6,1.1
				c15.2,4.4,24.9,10.1,28.2,16c3.7,9.3,4.3,19.6,1.6,29.3c-1.9,13.4-8.9,25.5-19.5,33.9c-12.5,8.1-27.1,12-42,11.2
				c-10-0.1-19.9-1.3-29.5-3.7c-7.7-2.3-14.8-6.3-20.7-11.6 M2662.9,811l4.9-25.1c2-0.9,3.7-2.4,4.9-4.1c1.5-2.7,2.6-5.7,3.1-8.8
				l12.4-65.5c0.8-3,1-6.2,0.5-9.3c-0.5-1.9-1.7-3.6-3.3-4.7l4.9-24.6h106.5l-8.8,47.2h-40.9l0.7-3.7c1.2-3.5,0.9-7.3-0.7-10.6
				c-2.5-2-5.7-2.9-8.8-2.6h-3.6l-4.9,25.1h27.4l-5.2,27.4h-27.4l-5.5,29h3.6c3.7,0.2,7.4-0.9,10.4-3.1c2.7-3.9,4.5-8.3,5.2-13
				c0-1.3,0.5-2.8,0.5-3.1s0-1.6,0.4-2.4h41l-10.1,51.8L2662.9,811z M2599.9,779.9h4.7c3.5,0.3,7.1-0.7,9.9-2.9
				c2.7-3.2,4.4-7.2,4.8-11.4l10.5-52.1c1-3.5,1-7.1,0-10.6c-2.6-2.2-6-3.2-9.3-2.8h-4.4L2599.9,779.9z M2544.5,811l4.7-25.1
				c2-0.8,3.6-2.3,4.7-4.1c1.5-2.7,2.6-5.7,3.1-8.8l12.7-66c0.5-2.9,0.7-5.9,0.8-8.8c-0.7-1.8-1.8-3.4-3.3-4.7l4.9-24.6h54.1
				c22,0,36.2,3.6,42.5,10.3s8,20.3,4.1,39.7l-8,42.7c-3.9,19.1-10.4,32.3-19.2,38.9c-8.8,6.5-24.9,10.6-46.9,10.6H2544.5z
				 M2515.5,706.3c0.6-2.9,0.9-5.9,0.8-8.8c-0.6-1.8-1.8-3.2-3.4-4.1l4.7-24.6h51l-4.7,24.6c-2.2,1-3.9,2.6-5.1,4.7
				c-1.6,2.7-2.6,5.7-3.2,8.8l-9.5,50c-1.4,7.9-3.2,15.6-5.5,23.3c-1.5,4.5-3.7,8.7-6.5,12.5c-5,7.3-12.1,12.9-20.4,16
				c-9.7,3.7-20,5.4-30.3,5.2c-8.5,0.2-16.9-1.2-24.9-4.1c-6.4-2.6-11.8-7.3-15-13.5c-1.7-3.6-2.7-7.5-2.9-11.5
				c0.3-6.3,1-12.7,2.4-18.9l1.2-7.2l10.1-51.8c0.6-2.9,0.6-5.9,0-8.8c-0.9-2-2.3-3.6-4.1-4.7l4.7-24.6h54.6l-4.7,24.6
				c-2,0.8-3.7,2.1-4.9,3.9c-1.2,3.1-2.1,6.3-2.8,9.6l-11.9,62.4c-0.8,3.5-0.8,7.2,0,10.7c1.2,2.2,3.7,3.4,6.2,3.1
				c2.8,0.3,5.7-0.8,7.6-2.9c2.3-3.2,3.8-6.9,4.4-10.8L2515.5,706.3z"/>
		</g>
		<g>
			<polygon class="st2" points="2385,678.4 749.3,681.4 750.2,673 2386.2,670.1 			"/>
		</g>
		<g>
			<path class="st2" d="M592.6,68C664.7,523.9,341,678.2,341,678.2S16.9,523.9,88.5,68H592.6z"/>
		</g>
		<g>
			<path class="st3" d="M572,92.9c66.3,418.6-231.1,560.4-231.1,560.4S43.2,511.7,109,92.9H572z"/>
		</g>
		<g>
			<path class="st4" d="M562.6,104.5C626.1,506,340.9,641.9,340.9,641.9S55.4,506,118.5,104.5H562.6z"/>
		</g>
		<g>
			<path class="st2" d="M340.9,643.6l-0.7-0.3c-0.7-0.3-72.5-35.1-135.4-118.6c-58.1-77-120.5-212.5-87.8-420.4l0.2-1.3h446.7
				l0.2,1.3c32.9,207.9-29.3,343.4-87.3,420.4c-62.9,83.5-134.5,118.2-135.2,118.6L340.9,643.6z M119.8,106
				c-32.1,206.1,29.7,340.3,87.3,416.7c59.3,78.7,126.4,113.8,133.8,117.5c7.3-3.7,74.3-38.8,133.5-117.5
				c57.5-76.4,119.1-210.6,86.9-416.7H119.8z"/>
		</g>
		<g>
			<path class="st2" d="M175.8,579.8c-20.2,1.4-40.4,2.7-58.8,4.5c-11,1.4-14,5.9-3.2,8.1c10.8,2.2,50.1,7.6,53.3,7.6
				c5.9,0.1,11.6,2.2,16.1,5.9L175.8,579.8z"/>
		</g>
		<g>
			<path class="st2" d="M183.2,607.5c-0.4,0-0.7-0.1-1-0.4c-4.3-3.5-9.7-5.4-15.2-5.5c-3.6,0-43.2-5.5-53.6-7.6
				c-5.4-1.1-8.1-2.9-8-5.4c0.1-3.9,7.2-5.3,11.4-5.8c18.6-1.8,39.1-3.2,58.8-4.5c0.7,0,1.4,0.4,1.6,1.2l7.5,26
				c0.2,0.7-0.1,1.4-0.7,1.8C183.8,607.4,183.5,607.5,183.2,607.5z M108.7,588.8c0.1,0,0.8,1.1,5.5,2.1c10.8,2.2,49.9,7.6,53,7.6
				c4.7,0.1,9.3,1.4,13.4,3.7l-5.9-20.5c-19.4,1.3-39.3,2.7-57.4,4.4C111.3,586.7,108.9,588.2,108.7,588.8L108.7,588.8z"/>
		</g>
		<g>
			<path class="st3" d="M340.5,574.6c38.1,0,145.4,2.4,223.8,9.7c11,1.4,13.7,5.9,3,7.6c-10.7,1.8-49.8,7.6-52.8,8.1
				c-24,2.9-20.5,12.9,1.1,13.7c44.6,3.2,88.9,8.8,132.8,17L608.7,585l67.9-29.1c-61.9-12.3-73.2-9.2-73.2-9.2l11.3-18.8
				c4.6-6,6.5-13.9-4.3-16.2c-72.5-16.1-221.1-15.2-269.8-15.2S143.4,496,71,511.7c-10.7,2.4-8.8,10.2-4.3,16.2L78,547.2
				c0,0-11.6-3.1-73.2,9.2l67.9,29.1l-39.9,45.7c44-8.1,88.4-13.8,133-17c21.5-0.8,25-10.8,1.1-13.7c-3,0-42.3-6.1-53.3-8.1
				s-7.6-6.6,3.2-7.6c78.1-7.6,185.5-9.7,223.5-9.7"/>
		</g>
		<g>
			<path class="st2" d="M32.8,632.8c-0.6,0-1.1-0.3-1.4-0.8c-0.3-0.6-0.3-1.3,0.2-1.8l38.4-44L4.1,557.9c-0.6-0.3-1-0.9-1-1.6
				c0.1-0.7,0.6-1.3,1.3-1.4c45.4-9.1,63.9-9.7,70.6-9.5l-9.7-16.6c-1.9-2.5-5.1-7.7-3.4-12.4c1.1-3.1,4-5.1,8.7-6.1
				c70.7-15.3,212.6-15.2,265.9-15.3h11c52.9,0,193.7-0.1,263.2,15.3c4.6,1,7.5,3.1,8.7,6.1c1.7,4.7-1.4,9.9-3.5,12.6l-9.5,15.9
				c6.7-0.2,25.1,0.5,70.5,9.5c0.7,0.1,1.2,0.7,1.3,1.4c0.1,0.7-0.3,1.4-1,1.6l-65.9,28.3l38.2,44c0.4,0.5,0.5,1.3,0.2,1.8
				c-0.3,0.6-1,0.9-1.7,0.8c-43.7-8.1-88.4-13.8-132.6-16.9c-11.6-0.4-18.9-3.5-19.1-8c-0.2-4.3,6.2-7.5,18-8.9l5.9-0.9
				c12.4-1.9,38.3-5.8,46.8-7.2c4.8-0.8,5.5-1.9,5.5-1.9c-0.2-0.4-2.7-1.8-8.4-2.5c-78-7.3-184.3-9.7-223.6-9.7
				c-39.8,0-146.8,2.5-223.6,10.3c-5.9,0.5-8.3,2.1-8.5,2.6c0,0,0,0,0,0c0.1,0,1,1.1,5.4,1.9c11.8,2.1,50.4,8,53,8
				c12,1.4,18.3,4.6,18.2,8.9c-0.2,4.5-7.5,7.5-19.2,8c-44.3,3.1-89,8.8-132.8,16.9C33,632.8,32.9,632.8,32.8,632.8z M10.1,557
				l63.1,27.1c0.5,0.2,0.8,0.6,0.9,1.1c0.1,0.5,0,1-0.4,1.4L37,628.8c42.5-7.7,85.8-13.1,128.7-16.2c12-0.5,16.1-3.6,16.2-4.9
				c0-1-2.7-4.1-15.2-5.6c0,0,0,0,0,0c-3.2,0-43.1-6.2-53.4-8.1c-5.5-1-8.2-2.7-8.1-5.2c0.1-2.9,4.4-4.9,11.4-5.6
				c76.8-7.8,184-10.3,223.9-10.3c39.3,0,145.7,2.4,223.9,9.7c3.4,0.4,11.2,1.8,11.2,5.8c0,2.4-2.7,4.1-8.1,5
				c-8.5,1.4-34.4,5.3-46.9,7.2l-6,0.9c-12.6,1.5-15.3,4.6-15.2,5.6c0.1,1.3,4.2,4.4,16.1,4.9c42.9,3,86.1,8.5,128.5,16.2
				l-36.7-42.2c-0.3-0.4-0.5-0.9-0.4-1.4c0.1-0.5,0.5-0.9,0.9-1.1l63.1-27.1c-55.7-10.8-67-8.3-67.4-8.2c-0.6,0.2-1.3-0.1-1.7-0.6
				c-0.4-0.5-0.4-1.2-0.1-1.8l11.3-18.8c2.9-3.8,4-7.3,3.1-9.7c-0.7-2-2.9-3.4-6.4-4.1c-69.1-15.3-209.7-15.1-262.5-15.2l-6.9,0
				l-4,0c-53.3,0-194.8,0-265.2,15.2c-3.5,0.8-5.6,2.2-6.3,4.1c-0.9,2.4,0.2,5.9,3,9.6l11.4,19.5c0.3,0.6,0.3,1.3-0.1,1.8
				c-0.4,0.5-1.1,0.8-1.7,0.6C77.1,548.6,65.6,546.1,10.1,557z"/>
		</g>
		<g>
			<path class="st2" d="M505.5,579.8c20.5,1.4,40.4,2.7,59,4.5c11,1.4,13.7,5.9,3,8.1c-10.7,2.2-49.8,7.6-52.8,7.6
				c-6,0.1-11.7,2.2-16.4,5.9L505.5,579.8z"/>
		</g>
		<g>
			<path class="st2" d="M498.1,607.5c-0.3,0-0.6-0.1-0.9-0.3c-0.6-0.4-0.8-1.1-0.7-1.8l7.3-26c0.2-0.7,0.9-1.1,1.6-1.2
				c20.6,1.4,40.6,2.8,59,4.5c4.2,0.5,11.1,1.9,11.2,5.8c0.1,2.5-2.6,4.3-8.1,5.4c-10.8,2.2-50.1,7.7-53.1,7.7
				c-5.6,0.1-11.1,2-15.5,5.5C498.8,607.4,498.5,607.5,498.1,607.5z M506.6,581.5l-5.8,20.6c4.2-2.3,8.9-3.6,13.7-3.7
				c2.5,0,41.4-5.3,52.5-7.6c5-1,5.5-2.2,5.6-2.3c-0.1-0.2-2-1.9-8.4-2.7C546.3,584.2,526.8,582.9,506.6,581.5z"/>
		</g>
		<g>
			<path class="st3" d="M604.4,545.1l-30.4,44.1L604.4,545.1z"/>
		</g>
		<g>
			<path class="st2" d="M573.9,590.8c-0.3,0-0.6-0.1-0.9-0.3c-0.4-0.3-0.7-0.8-0.7-1.3c0-0.3,0.1-0.6,0.3-0.9l30.4-44.1
				c0.5-0.7,1.5-0.9,2.2-0.4c0.4,0.3,0.7,0.8,0.7,1.3c0,0.3-0.1,0.6-0.3,0.9l-30.4,44.1C574.9,590.6,574.5,590.8,573.9,590.8z"/>
		</g>
		<g>
			<path class="st3" d="M76.4,545.1l31,44.1L76.4,545.1z"/>
		</g>
		<g>
			<path class="st2" d="M107.3,590.8c-0.5,0-1-0.2-1.3-0.7l-31-44.1c-0.2-0.3-0.3-0.6-0.3-0.9c0-0.5,0.2-1,0.7-1.3
				c0.7-0.5,1.7-0.3,2.2,0.4l31,44.1c0.2,0.3,0.3,0.6,0.3,0.9c0,0.5-0.2,1-0.7,1.3C108,590.7,107.7,590.8,107.3,590.8z"/>
		</g>
		<g>
			<path class="st2" d="M541.4,559.1c0,2.1-0.6,2.7-2.1,2.7c-1.5,0.1-1.3,0-1.4,0.7c-0.1,0.7,0,0.8,1.4,0.9l6.1,0.6
				c3.3,0.5,7.1,1.2,10,1.7c1.4,0,1.4,0,1.9-4.3c0.5-4.3,0.5-5.6,0-5.6s-0.6,0-1.1,1.8c-1.6,4.6-3,6.5-7.6,5.8c-3,0-4.2-1.8-4-4.4
				l1.4-12.2c0-0.6,0-0.8,2.7-0.5s3.3,1.4,3.7,4.5c0,1.4,0,1.8,0.7,1.9s0.5,0,0.6-0.8s0-3.7,0.4-5.4c0.4-1.8,0.5-3.2,0.7-4.4
				c0.2-1.2,0-1.1,0-1.2s0,0-1.2,2.2c-1.2,2.2-1.8,2.3-4.9,1.8s-2.1-0.5-2.1-1.3l1.3-12.3c0-0.9,0.5-1.2,3.3-0.8
				c4.3,0.6,5.9,2.5,6.7,7.6c0,1.4,0,1.5,0.7,1.6s0.6,0,1.2-6.5c0-2.3,0-2.4-0.8-2.5s-3.4,0-8.2-0.9c-4.8-0.9-6.2-1.1-7.6-1.3
				c-1.4-0.2-1.3,0-1.3,0.5c0,0.5,0.6,0.6,1.8,1.1c1.1,0.5,0.9,0.8,0.8,2L541.4,559.1z M516.8,555.6c0,1.9-0.7,2.7-2.1,2.8
				c-1.4,0.1-1.6,0-1.7,0.7c-0.1,0.7,0,0.8,0.8,0.8s1.9,0,3.6,0l5.3,0.8c8.4,1,13.2-5.5,14.2-17c1.1-11.6-3.7-18.1-11.6-19.1
				c-2.5-0.5-5.1-0.5-7.6,0c-1.5,0-1.7,0-1.8,0.8c-0.1,0.8,0,0.5,0.8,0.6c1.9,0,2.5,0.6,2.4,2.2L516.8,555.6z M522.6,528.9
				c0-2.1,0.8-2.9,3.2-2.7c4.9,0.6,8.6,5.5,7.6,18c-1,12.5-4.7,16.1-10.4,15.2c-2.4,0-3-2.1-2.7-4.3L522.6,528.9z M510.9,528.9
				c0-1.8,0.5-2.7,1.6-2.8c1.1-0.1,1.8,0,1.8-0.8s0-0.7-0.7-0.7c-0.7,0-2,0-3,0c-1.1-0.1-2.2-0.3-3.3-0.6c-0.3,0-0.6,0.2-0.7,0.5
				c0,0,0,0.1,0,0.1c0,0.5,0.6,0.8,1.5,1.1c0.9,0.2,1.7,1.1,1.4,4.3l-1.6,20.5c0,0.5,0,0.8,0,0.8c-1.6-3.1-2.8-6.3-3.7-9.6
				l-6.3-16.6c-0.5-1.4-0.5-2.5-1.3-2.6h-1l-3.3-0.5c0,0-1.1,0-1.1,0.5c-0.1,0.5,0.4,0.7,1.6,1.1s1.1,1.2,0.9,3.2l-2,26
				c0,1.7-0.5,2.8-1.4,3.1c-0.9,0.3-2.1,0-2.2,0.8c0,0.3,0.2,0.6,0.5,0.6c0.8,0,1.4,0,3.9,0c1.2,0.1,2.3,0.3,3.4,0.6
				c0.5,0,0.8,0,0.8-0.5c0-0.5-1.1-0.8-2.4-1.2s-1.3-2.3-0.9-7.6l1.5-19.7c0-1.1,0-1.2,0.5-1.1c2.4,4.9,4.3,10,5.9,15.2
				c6.2,16.4,6.1,17,6.7,17.1c0.6,0.1,0.5,0,0.6-1.6L510.9,528.9z M479.4,529.5c0,0,0.5,0,0.6,1.1c1.2,7.6,2.1,11.2,2,11.9
				c-0.1,0.7,0,0.5-3.5,0c-3.5-0.5-3,0-2.9-0.7c0.1-0.7,0.5-1.8,3-10.8c0.5-1.5,0.5-1.8,0.8-1.8 M481.6,544.1c0.8,0,1.1,0.5,1.4,2.9
				c0.8,5,1.1,6.7,1.1,7.2c0,0.5-0.7,1.4-1.5,1.4c-0.8,0-1.3,0-1.3,0.6c0,0.6,0,0.7,0.8,0.7h3.5c1.1,0,1.9,0,3,0.5
				c1.1,0.5,1,0,1.1,0c0.1,0-0.8-0.8-1.4-1c-0.6-0.6-1-1.4-1.1-2.3c-2.7-14.8-4-21.8-5.7-31.9c0-1.1,0-1.4-0.8-1.4
				c-0.8,0-0.7,0.5-1.1,1.6c-3,10.4-6.1,21.8-9.4,30.9c-0.5,1.5-2,0.7-2.1,1.8c-0.1,1.1,0,0.7,0.5,0.7c0.9-0.1,1.8-0.1,2.7,0
				c1.1,0,2.1,0,3,0.5c0.8,0.5,0.8,0,0.9-0.5c0.1-0.5-0.6-0.7-1.5-0.9c-0.8-0.1-1.5-0.8-1.4-1.7c0,0,0,0,0,0c0.4-2.3,1-4.5,1.7-6.7
				c0.8-2.7,1.1-2.8,1.8-2.7L481.6,544.1z M463.7,521.9c0-0.7,0-0.8,2.7-0.5c5.2,0,3.3,8.2,4.7,8.4c1.4,0.2,0.8-0.8,1.2-4.3
				c0.3-1.6,0.4-3.2,0.5-4.9c0-1.2,0-1.6-0.5-1.6c-0.5,0,0,1.5-2.7,1.3l-14.3-1.1c-1.2,0-0.8-1.6-1.8-1.7c-0.9-0.1-0.7,0.4-1.3,4.2
				c-0.4,1.7-0.7,3.5-0.9,5.3c0,1.1,0,1.3,0.5,1.3c0.5,0,1.8-7.6,6.2-7.6c2.4,0,2.4,0,2.4,1l-1.8,28.6c0,2.1-0.5,2.8-1.7,2.8
				c-1.2,0-2.1,0-2.1,0.8s0,0.7,0.9,0.8c1.4-0.1,2.8-0.1,4.2,0c2.7,0,3.6,0.5,4.2,0.5s1,0,1.1-0.6c0.1-0.6-1.1-0.7-2.4-1.1
				c-1.3-0.4-1.1-1.1-1.1-2.9L463.7,521.9z M447,522.7c0-1.8,0-2.7,1.5-2.9c1.5-0.2,1.7,0,1.8-0.8c0.1-0.8,0-0.6-0.8-0.7
				c-0.8-0.1-1.9,0-3,0s-2.8-0.5-3.3-0.5c-0.3,0-0.6,0.2-0.7,0.5c0,0,0,0.1,0,0.1c0,0.6,0.6,0.8,1.6,1c1,0.2,1.7,1.1,1.5,4.3
				l-1,20.7c0,0.5,0,0.8,0,0.8s0,0-4-9.4l-6.3-15.8c-0.5-1.4-0.7-2.4-1.4-2.5h-1h-3.3c0,0-1.1,0-1.1,0.6c0,0.6,0,0.7,1.6,1
				c1.6,0.3,1.1,1.2,1,3.2l-1.4,25.7c0,1.7,0,2.8-1.3,3.2s-2.1,0-2.1,0.8c0,0.8,0,0.6,0.5,0.6c0.5,0,1.5,0,4,0
				c1.2,0,2.3,0.2,3.4,0.5c0.5,0,0.8,0,0.8-0.5c0-0.5-1.1-0.8-2.4-1.1c-1.3-0.4-1.4-2.2-1.2-7.6L431,524c0-1,0-1.2,0.4-1.1
				s0.5,0.9,6.4,15.2c6.7,16.1,6.6,16.7,7.6,16.8s0.5,0,0.6-1.6L447,522.7z M415.1,525.1c0,0,0.5,0,0.6,1.1
				c1.4,7.6,2.4,11.1,2.4,11.8s0,0.5-3.5,0s-3,0-3-0.5s0-1.9,2.7-11c0.5-1.6,0.5-1.8,0.8-1.8 M417.6,539.6c0.9,0,1.1,0.5,1.5,2.8
				c1,5,1.4,6.6,1.4,7.6c0,1-0.6,1.4-1.3,1.3c-0.7-0.1-1.3,0-1.3,0.7c0,0.4,0.3,0.7,0.7,0.7c0,0,0.1,0,0.1,0c1,0,2.3,0,3.5,0
				s1.9,0,3,0c1.1,0,1,0,1,0s-0.8-0.7-1.4-1c-0.7-0.3-0.9-1.2-1.1-2.2c-3.1-14.7-4.6-21.7-6.7-31.7c0-1,0-1.4-0.8-1.4
				s-0.7,0.5-1,1.7c-2.9,10.5-5.6,22.8-8.6,31.7c-0.5,1.5-1.9,0.8-2,1.8c0,0.3,0.2,0.6,0.5,0.7c0,0,0,0,0,0c0.9-0.1,1.8-0.1,2.7,0
				l3,0.4c0.5,0,0.8,0,0.8-0.6c0.1-0.6-0.6-0.6-1.6-0.8c-1-0.2-1.4-0.9-1.4-1.6c0.4-2.3,0.9-4.5,1.5-6.8c0.7-2.7,0.9-2.9,1.7-2.8
				L417.6,539.6z M404.6,541.7c0-11.3-12.8-10-12.6-19.9c-0.1-2.7,2-5,4.7-5.3c2.1,0,3.9,1.8,5,6.7c0,1.2,0,2.1,0.8,2.1
				c0.8,0.1,0.5,0,0.5-3c0-4.6,0-5,0-5.3c-1.6-1.1-3.5-1.8-5.4-1.8c-4.6-0.1-8.4,3.6-8.4,8.1c0,0,0,0.1,0,0.1
				c0,10.4,12.8,10,12.6,19.9c0,4.2-2.4,7.6-5.6,7.6c-3.2,0-5-3-6.4-9.6c0-0.6,0-0.9-0.7-0.9c-0.7,0-0.7,0-0.8,4
				c-0.1,4,0,5.6,0.8,6.2c1.7,1.1,3.7,1.6,5.7,1.5c5.2,0.1,9.5-4,9.6-9.2C404.7,542.5,404.6,542.2,404.6,541.7 M359.5,545.5
				c0,2.1,0,2.8-1.9,3c-1.9,0.2-1.2,0-1.2,0.8s0.5,0.8,1.5,0.8c1.1,0,3.6,0,6.1,0c2.5,0,7.2,0,10,0c1.4,0,1.4,0,1.4-4.4
				c0-5.6,0-5.7-0.4-5.7s-0.6,0-1,1.9c-1.1,4.8-2.3,6.8-7,6.8c-3,0-4.4-1.2-4.4-3.9v-12.2c0-0.6,0-0.8,2.7-0.8s3.5,0.9,4.2,3.9
				c0.4,1.4,0.5,1.8,0.8,1.8c0.3,0,0.5,0,0.5-0.8s0-3.7,0-5.5c0-1.8,0-3.2,0-4.5c0-1.3,0-1.1,0-1.1s-0.4,0-1,2.4s-1.5,2.4-4.7,2.4
				c-3.2,0-2.2,0-2.2-1v-12.1c0-0.9,0-1.3,3.2-1.3c4.3,0,6.1,1.7,7.6,6.2c0,1.3,0,1.4,0.8,1.4c0.8,0,0.5,0,0.5-6.6
				c0-2.3,0-2.4-1.1-2.4c-1.1,0-3.4,0-8.2,0c-4.8,0-6.4,0-7.6,0c-1.2,0-1.2,0-1.2,0.7c0,0.7,0.7,0.5,1.9,0.8
				c1.2,0.3,0.9,0.6,0.9,1.9L359.5,545.5z M335,545.5c0,1.9-0.5,2.8-1.9,3c-1.4,0.2-1.5,0-1.5,0.9s0,0.7,0.9,0.7h3.6h5.3
				c8.4,0,12.6-7,12.6-18.6c0-11.6-5.3-17.6-13.2-17.6c-2.6-0.1-5.2,0.2-7.6,1c-1.4,0.6-1.6,0.6-1.6,1.1c0,0.5,0,0.5,0.8,0.5
				c2,0,2.6,0,2.6,2L335,545.5z M338,518.3c0-2.1,0.5-3,3-3c5,0,9.1,4.3,9.1,16.9s-3.3,16.6-8.9,16.6c-2.4,0-3.2-1.7-3.2-3.9
				L338,518.3z M300.8,545.5c0,1.9-0.5,2.8-1.9,3c-1.4,0.2-1.5,0-1.5,0.9s0,0.7,0.9,0.7h3.6h5.3c8.4,0,12.6-7,12.6-18.6
				s-5.3-17.6-13.2-17.6c-2.6-0.1-5.2,0.2-7.6,1c-1.4,0.6-1.6,0.6-1.6,1.1c0,0.5,0,0.5,0.8,0.5c1.9,0,2.6,0,2.6,2L300.8,545.5z
				 M304,518.3c0-2.1,0.5-3,3-3c5,0,9.1,4.3,9.1,16.9s-3.3,16.6-8.9,16.6c-2.4,0-3.2-1.7-3.2-3.9L304,518.3z M285.7,523.8
				c0,0,0.5,0,0.8,1.1c1.7,7.6,2.8,11,2.8,11.6s0,0.5-3.5,0.5c-3.5,0.1-3,0-3,0s0-1.9,2.2-11.1c0-1.6,0-1.8,0.7-1.8 M289,538.7
				c0.8,0,1.1,0.5,1.6,2.7c0.7,2.2,1.3,4.3,1.8,6.5c0,1.1-0.5,1.4-1.2,1.4c-0.7,0-1.3,0-1.3,0.8s0.5,0.6,0.8,0.6s2.2,0,3.5,0
				c1.3,0,1.9,0,3,0c1.1,0,1.1,0,1.1-0.5c0-0.5-0.8-0.6-1.5-0.8c-0.7-0.5-1.1-1.3-1.2-2.2c-3.7-14.4-5.6-21.3-8.1-31.1
				c0-1.1-0.4-1.4-0.8-1.4s-0.6,0.6-0.9,1.8c-2.4,10.7-4.5,22.8-7.1,32.1c-0.5,1.5-1.9,0.9-1.9,2c0,1.1,0,0.6,0.5,0.6
				c0.9-0.1,1.8-0.1,2.7,0h3c0.5,0,0.8,0,0.8-0.6c0-0.6-0.6-0.6-1.6-0.8c-1-0.2-1.4-0.8-1.4-1.5c0.2-2.3,0.6-4.6,1.1-6.8
				c0.5-2.7,0.8-2.9,1.6-2.9L289,538.7z M257.2,548c0,1.9,0,2.7-1.8,3c-1.8,0.3-1.5,0-1.5,1c0,1,0,0.7,0.9,0.7c0.9,0,1.9,0,3.6,0
				c1.7,0,3.7,0,5.3,0c8.5,0,12.4-7.6,12-19.1c-0.4-11.5-6.2-18.1-13.8-17.8c-2.6,0.1-5.2,0.7-7.6,1.8c-1.4,0.6-1.6,0.6-1.6,1.1
				s0,0.5,0.9,0.5c1.9,0,2.6,0,2.6,1.8L257.2,548z M259.6,520.6c0-2.1,0-3,2.8-3.1c5,0,9.3,4,9.7,16.5c0.4,12.5-2.7,16.7-8.4,17
				c-2.4,0-3.3-1.5-3.3-3.8L259.6,520.6z M246.7,520.6c0-1.1,0-1.9,1.3-2.1c1.3-0.2,2.3,0,2.2-1c-0.1-1,0-0.7-1.1-0.6
				c-1.1,0.1-2.7,0-4.2,0.5c-1.5,0.5-2.8,0-4,0c-1.2,0-1,0-1,0.8s0.5,0.5,2.1,0.8c1.7,0.2,1.4,0,1.4,1.9l1.3,27.7c0,2,0,2.3-1.5,2.7
				c-1.5,0.5-1.8,0-1.7,1.1s0,0.6,0.9,0.6c1.3-0.3,2.7-0.5,4-0.5c3.4,0,3.7,0,4.1,0c0.5,0,1.1,0,1.1-0.5s-1.1-0.8-2.1-1
				c-1-0.2-1.6-1.2-1.7-2.8L246.7,520.6z M238.1,543.4c-0.7-10.7-13.5-8.6-14.2-18.3c-0.3-2.7,1.6-5.2,4.3-5.6c2.2,0,4,1.4,5.5,6.2
				c0,1.2,0,2.1,0.9,2.1s0.5,0,0-3c0-4.6,0-5-0.5-5.3c-1.4-1.1-3.1-1.7-4.9-1.9c-4.6,0.3-8.2,4.3-8,8.9c0.5,10.4,13.4,9,13.9,18.9
				c0,4.2-1.9,7.6-5.1,7.6c-3.2,0-5.2-2.1-6.7-8.9c0-0.6,0-0.8-0.8-0.8s-0.7,0-0.5,4.1c0.2,4.1,0,5.6,1.1,6c1.8,0.9,3.8,1.3,5.8,1.1
				c5.3-0.3,9.4-4.9,9.1-10.2c0-0.3,0-0.6-0.1-0.9 M201.9,523.6c0-1.8,0-2.5,2.9-2.7c4.1,0,6.6,2,6.9,7.6c0.6,4.2-2.4,8-6.5,8.5
				c-0.2,0-0.4,0-0.5,0.1c-1.9,0-2,0-2,0L201.9,523.6z M202.9,538.8c0-0.8,0-1,1.8-1.1c1.8-0.2,2.5,0.5,3.4,2.6
				c5.4,12.2,5.6,13.8,6.5,13.8l2.6-0.5c1.3,0,1.8,0,2.4,0s0.8,0,0.7-0.7s-0.7,0-2.3-0.8c-1.6-0.8-3.6-6.2-7.6-14.4
				c-0.7-1.4-1.3-1.2-1.3-1.5s0.9,0,2.7-1.4c4-2.7,5-8.1,2.3-12.1c-1.9-2.8-5.2-4.2-8.5-3.7c-1.8,0-3.7,0.5-5.7,0.7
				c-2.1,0.2-2.4,0-3.7,0c-1.2,0-1,0-1,0.8s1.1,0.5,2.2,0.7c1.1,0.2,1.4,1,1.4,3l1.6,26.3c0,1.9,0,2.7-1.1,3s-2.4,0.5-2.3,1.1
				c0.1,0.6,0,0.6,1.1,0.5c1.4-0.3,2.9-0.5,4.3-0.6c1.4-0.1,2.8-0.1,4.3,0c0.7,0,0.9,0,0.8-0.7c-0.1-0.7-0.8-0.5-2.3-0.8
				c-1.5-0.4-1.6-1.2-1.7-2.6L202.9,538.8z M178.2,553.6c0,2.1,0,2.7-1.7,3.2s-1.2,0.5-1.1,0.9s0.5,0.8,1.5,0.6
				c1-0.2,3.6-0.5,6.1-0.8c2.5-0.3,7.2-0.5,10-0.8c1.4,0,1.4,0,1.1-4.6s-0.4-5.6-0.8-5.6c-0.5,0-0.5,0-0.8,2.1
				c-0.8,4.8-1.8,7-6.5,7.6c-3,0-4.4-0.8-4.6-3.4l-1.1-12.4c0-0.6,0-0.8,2.7-1.1s3.5,0.6,4.5,3.5c0.5,1.3,0.6,1.8,1,1.7
				s0.5,0,0.5-0.9s-0.5-3.6-0.6-5.4c-0.2-1.8,0-3.2,0-4.5c0-1.3,0-1.1-0.5-1.1c-0.5,0,0,0.4-0.8,2.4c-0.8,2.1-1.4,2.7-4.6,3
				c-3.2,0.3-2.1,0-2.2-0.8l-1.1-12.1c0-1,0-1.3,3-1.6c4.3-0.5,6.2,1,7.6,5.5c0.5,1.2,0.5,1.4,1,1.4s0.5-0.5,0-6.7
				c0-2.3,0-2.4-1.3-2.3c-1.3,0.1-3.4,0.6-8.2,1.1s-6.3,0-7.6,0.5c-1.3,0.5-1.2,0.4-1.2,0.8s0.8,0.5,2,0.7c1.2,0.2,1,0.5,1.1,1.8
				L178.2,553.6z M157.6,527.9c-0.1-0.6,0.2-1.2,0.8-1.4c1.6-0.5,1.9-0.5,1.8-1.1c0-0.3-0.3-0.6-0.6-0.6c0,0-0.1,0-0.1,0
				c-1.4,0.2-2.8,0.4-4.2,0.5c-1,0.1-2.1,0.1-3.1,0c-0.4,0.1-0.6,0.5-0.6,0.8c0,0,0,0,1.4,0.7c1.4,0.7,1.8,4.2,8.6,23.9
				c0.8,3.3,1.9,6.6,3.2,9.7c0.6,0,0.8-0.5,1.3-4.4c1.1-8.3,2.9-21.3,3.9-27.2c0.5-3.1,0.6-3.3,1.1-3.8c0.5-0.5,1.3,0,1.2-1.1
				c-0.1-1.1,0-0.6-0.8-0.5c-0.8,0.1-1.4,0-2.2,0.5c-0.9,0.1-1.7,0.1-2.6,0c-0.5,0-0.8,0.4-0.8,0.9c0,0,0,0,0,0
				c0,0.6,0.5,0.5,1.5,0.6c1.1,0.1,1.2,0.5,1.3,1.4c-0.2,5.7-0.9,11.3-2.1,16.9c-1,6.7-1,7.6-1.3,7.6c-0.3,0-0.5-0.7-4.9-13.5
				c-1.3-3.3-2.4-6.7-3.3-10.2 M147.8,529.7c0-1.1,0-1.9,1.2-2.2c1.2-0.3,2.2,0,2.1-1.1s-0.5-0.7-1.1-0.6l-4.1,0.8c-1.4,0-2.8,0-4,0
				c-1.2,0-1,0.5-1,0.8c0,0.3,0.5,0.6,2.1,0.7c1.6,0.1,1.4,0,1.6,1.8l2.5,27.6c0,1.9,0,2.2-1.4,2.8c-1.4,0.6-1.8,0.5-1.7,1.1
				c0.1,0.7,0.5,0.6,1,0.5c1.3-0.4,2.7-0.6,4-0.8c1.4-0.1,2.7-0.1,4.1,0c0.8,0,1,0,1-0.7c0-0.7-1.1-0.7-2.1-0.8
				c-1-0.1-1.7-1.1-1.8-2.7L147.8,529.7z M135.2,532.2c0-1.9,0-2.8,1.1-3.2c1.1-0.4,1.6-0.5,1.5-1.1s0-0.6-0.8-0.5
				c-1,0.3-1.9,0.5-2.9,0.6c-1.1,0.1-2.3,0.1-3.4,0c-0.4,0-0.6,0.4-0.6,0.8c0,0,0,0,0,0c0,0.5,0.8,0.6,1.8,0.6s1.8,0.8,2.1,3.9
				l2.2,20.5c0,0.5,0,0.8,0,0.8s-0.4,0-5.4-8.4l-8.6-14.2c-0.7-1.3-1-2.3-1.8-2.3h-1l-3.3,0.4c0,0-1.1,0-1,0.8
				c0.1,0.8,0.5,0.6,1.8,0.6c1.3,0,1.2,1,1.4,3l2.7,25.9c0,1.7,0,2.8-0.8,3.3c-0.8,0.5-2.1,0.6-2,1.3c0.1,0.7,0,0.5,0.6,0.5
				c1.3-0.3,2.6-0.6,3.9-0.8c1.1-0.1,2.3-0.1,3.4,0c0.4,0,0.7,0,0.7-0.7s-1.2-0.5-2.7-0.6c-1.4-0.2-1.7-1.9-2.3-7.6l-2.1-19.6
				c0-1.1,0-1.3,0-1.3c3.2,4.4,6.1,9,8.6,13.8c9.1,14.5,9.1,15.2,9.6,15.2c0.5,0,0.5,0,0-1.7L135.2,532.2z M110.7,536.5
				c0-3.1,0-3.7,0.9-4c0.9-0.4,1.6-0.5,1.5-1.1c-0.1-0.6,0-0.8-0.7-0.7s-1.1,0-3.3,0.7c-2.1,0.7-2.2,0-2.8,0c-0.5,0-0.8,0.4-0.8,0.8
				l0,0c0,0.7,0.5,0.7,1.4,0.6c1-0.1,2.1,0.7,2.4,4.1l2.1,19.2c0.8,6.9-2.2,10-5.6,10.4c-3.3,0.5-5.9-1-6.5-5.9l-2.5-22.8
				c0-3.3,0.6-3.3,1.7-3.7c1.1-0.4,1.4-0.5,1.4-1s-0.5-0.5-1.2-0.4c-0.8,0.2-1.7,0.5-3.9,0.8s-2,0-3.3,0s-0.9,0-0.8,0.6
				c0.1,0.6,0,0.5,2.2,0.8c0.4,0,0.4,0.7,0.5,2.1l2.5,23.3c-0.1,4.2,3.2,7.7,7.4,7.8c0.7,0,1.4-0.1,2.1-0.2
				c4.9-0.7,8.1-4.2,7.1-13.9L110.7,536.5z"/>
		</g>
		<g>
			<path class="st2" d="M569.8,535.5c0-1.8,0.6-2.4,3.3-2.1c4,0.5,6.1,3.3,5.5,8.6c0,3.9-3.2,7.1-7.1,7c-0.4,0-0.8,0-1.2-0.1
				c-1.9,0-2-0.5-1.9-0.8L569.8,535.5z M568.1,550.7c0-0.8,0-0.9,1.8-0.8c1.8,0.2,2.4,1.1,3,3.3c3.3,13.2,3.2,14.8,4,15.2
				c0.8,0.5,1.8,0,2.7,0c0.8,0.1,1.5,0.3,2.3,0.5c0.5,0,0.8,0,0.8-0.5c0.1-0.5-0.7,0-2.1-1.2c-1.4-1.2-2.5-6.8-5.2-15.8
				c-0.5-1.5-1.1-1.4-1-1.8c0.1-0.3,0.9,0,2.9-0.8c2.9-1.1,4.8-3.8,4.9-6.8c0.5-4.9-3-9.3-7.9-9.8c-0.1,0-0.2,0-0.4,0
				c-1.8,0-3.7,0-5.7-0.6c-2-0.6-2.4-0.5-3.6-0.7c-1.2-0.2-1.1,0-1.1,0.5s1,0.7,2.1,1.1s1.1,1.3,0.9,3.3l-2.8,26.2
				c0,1.9-0.5,2.6-1.5,2.7c-1,0.2-2.4,0-2.4,0.7s0,0.6,1.1,0.7c1.4-0.1,2.9-0.1,4.3,0c1.4,0.2,2.8,0.5,4.2,0.8c0.6,0,0.9,0,0.9-0.5
				c0-0.5-0.6-0.6-2.1-1.3c-1.4-0.7-1.4-1.5-1.3-2.9L568.1,550.7z"/>
		</g>
		<g>
			<polygon class="st2" points="89.2,54.2 592,54.2 572.3,0 108.9,0 			"/>
		</g>
		<g>
			<path class="st3" d="M287.2,42.6c-0.2,0-0.3,0-0.5,0c-1.4,0-2.9-0.4-4.1-1.2c-1.4-0.9-2.4-2.2-2.9-3.7c-0.4-1.2-0.8-2.5-1-3.8
				l0-12.6c0-1.9-0.4-3.9-1-5.7c-0.2-0.4-0.6-0.7-1.1-0.7c0,0,0,0,0,0l-2.1,0l2-2.1h2l2.1,0.4l1.9-0.4l2.4,0V15l-0.8,0.1
				c-0.3,0-0.6,0.2-0.9,0.4c-0.1,0.1-0.2,0.3-0.3,0.4c-0.1,0.9-0.1,1.9,0,2.9l0,13.2c0.1,1.2,0.3,2.4,0.7,3.6
				c0.3,0.9,0.9,1.8,1.7,2.5c0.6,0.4,1.4,0.7,2.2,0.7c0.1,0,0.2,0,0.3,0c1.7,0,3.1-1,3.7-2.5c1-3.3,1.5-6.8,1.2-10.3v-4.5
				c0.1-1.9,0-3.8-0.5-5.6c-0.1-0.4-0.6-0.8-1.1-0.8c0,0,0,0,0,0l-0.9,0v-2.4l2.6,0l1.3,0.4l1.5-0.4h2.2v2.4l-0.9,0
				c-0.4-0.1-0.8,0.3-1,0.7c-0.4,1.8-0.5,3.8-0.4,5.7v4.8c0.2,4.1-0.5,8.3-2.1,12.1C292.5,41,289.9,42.6,287.2,42.6z M286.9,40.8
				c0.9,0,1.7-0.1,2.5-0.5c-0.5,0.1-1.1,0.2-1.7,0.2c0,0,0,0-0.1,0c-1.2,0-2.3-0.4-3.3-1.1c-1-1-1.8-2.1-2.2-3.3
				c-0.4-1.3-0.7-2.7-0.8-4.1l0-13.2c-0.1-1-0.1-2.1,0-3.2c0.1-0.3,0.2-0.7,0.3-0.9l-1.1,0.2l-1.3-0.3c0,0.1,0.1,0.1,0.1,0.2
				c0.7,2.1,1.1,4.2,1.1,6.3v12.5c0.2,1.1,0.5,2.2,0.9,3.4c0.4,1.2,1.2,2.2,2.2,2.8C284.5,40.5,285.7,40.9,286.9,40.8z M293.8,14.9
				c0.1,0.2,0.2,0.4,0.2,0.6c0.1,0.3,0.2,0.7,0.2,1c0.1-0.4,0.1-0.8,0.2-1.1c0-0.1,0.1-0.3,0.2-0.4l-0.4,0.1L293.8,14.9z
				 M410.6,42.4h-0.9v-3.2l1.1,0.3c0.2,0.1,0.5,0.1,0.7,0.1c0.1-0.1,0.1-0.2,0.1-0.3c0.1-0.8,0.1-1.5,0-2.2c0-0.7-0.2-1.4-0.5-2.2
				c-0.1-0.5-0.3-1-0.4-1.6l-0.5-2h-5l-0.3,1.1c-0.5,1.8-0.8,3.2-1.1,4.4c0,0.6,0,1.4,0,2.1c0,0.3,0,0.4,0.1,0.6
				c0.2,0,0.4,0,0.6-0.1l1.2-0.4V42h-5.8c-0.4,0.1-0.9,0-1.4,0l-0.8-0.1v-2.7l1.1,0.3c0.2,0,0.4,0.1,0.5,0.1c0-0.2,0.1-0.3,0.1-0.5
				l0-0.2l0.1-0.2c1.3-3.4,2.4-6.9,3.3-10.4l0.5-1.8l4-14.3h2.2l0.2,0.6l3.6,13.7c1.2,4.5,2.1,7.6,2.4,9.1c0.2,1,0.6,2,1,2.9
				c0.3,0.5,0.8,0.9,1.5,1l0.8,0.1V42h-4.5l-1.8,0.4L410.6,42.4z M411.6,29.8l0.8,3.1c0.1,0.6,0.3,1.1,0.4,1.5
				c0.3,1,0.5,1.8,0.5,2.6c0.1,0.7,0.1,1.5,0,2.3c0,0.4-0.1,0.8-0.3,1.1l1-0.2l1.5,0c-0.2-0.3-0.4-0.5-0.6-0.9
				c-0.4-1.1-0.8-2.2-1.1-3.2c-0.4-1.4-1.2-4.6-2.4-9L408.3,15l-0.1,0.3l0.5,2.5c0.4,2,0.9,3.8,1.4,5.4l1.7,6.6H411.6z M401.1,39.2
				c0,0.4,0,0.7-0.2,1h1.4c-0.2-0.4-0.2-0.8-0.2-1.3c-0.1-0.7-0.1-1.5,0-2.4c0-0.2,0.1-0.5,0.1-0.7C402,37,401.6,38.1,401.1,39.2z
				 M406.1,28h3.5l-1.1-4.4c-0.2-0.7-0.5-1.4-0.7-2.2c-0.2,0.7-0.4,1.4-0.5,2.1c-0.2,0.7-0.4,1.5-0.6,2.2
				C406.5,26.5,406.3,27.2,406.1,28z M381.2,42.4c-3.1,0-6-1.7-7.5-4.5c-2-3.2-3-6.8-2.8-10.6c-0.1-3.7,0.9-7.4,2.9-10.6
				c1.4-2.7,4.3-4.4,7.4-4.4c3.1,0,6,1.7,7.5,4.5c1.9,3.1,2.9,6.8,2.8,10.5c0.1,3.8-0.9,7.4-2.8,10.6
				C387.1,40.7,384.3,42.4,381.2,42.4z M381.1,15c-1.7,0.1-3.2,1.3-3.8,3c-1.3,3-1.9,6.1-1.7,9.3c-0.2,3.2,0.4,6.4,1.7,9.3
				c0.6,1.8,2.1,2.9,3.9,3c1.8-0.1,3.3-1.3,3.9-3c1.2-3,1.8-6.1,1.7-9.3c0.1-3.2-0.5-6.3-1.7-9.3C384.4,16.3,382.9,15.2,381.1,15z
				 M386.1,16.2c0.2,0.4,0.4,0.8,0.6,1.2c1.3,3.1,1.9,6.5,1.8,9.9c0.1,3.3-0.5,6.8-1.8,9.9c-0.2,0.5-0.4,0.9-0.6,1.3
				c0.4-0.4,0.7-0.9,1-1.4c1.8-3,2.7-6.3,2.6-9.7v-0.1c0.1-3.4-0.8-6.7-2.5-9.6C386.8,17.1,386.5,16.7,386.1,16.2z M376.1,16.3
				c-0.3,0.4-0.6,0.8-0.9,1.3c-1.9,2.9-2.8,6.3-2.6,9.7c-0.1,3.5,0.8,6.9,2.6,9.8c0.3,0.5,0.6,1,1,1.4c-0.2-0.4-0.5-0.8-0.6-1.3
				c-1.3-3-2-6.5-1.8-9.9c-0.2-3.3,0.5-6.8,1.8-9.9C375.8,17,375.9,16.7,376.1,16.3z M332,42.4h-0.9v-3.2l1.1,0.3
				c0.2,0.1,0.5,0.1,0.7,0.1c0.1-0.1,0.1-0.2,0.1-0.3v-2.2c0-0.6-0.2-1.3-0.5-2.2c-0.1-0.5-0.3-1-0.4-1.6l-0.5-2h-5l-0.3,1.1
				c-0.4,1.8-0.7,3.3-1,4.4c0,0.6,0,1.4,0,2.1c0,0.3,0,0.4,0.1,0.6c0.2,0,0.4,0,0.6-0.1l1.2-0.4V42h-8.1v-2.7l1.1,0.3
				c0.2,0.1,0.5,0.1,0.8,0c0.2-0.1,0.4-0.3,0.5-0.6c1.3-3.3,2.4-6.8,3.3-10.3l0.5-1.8l3.3-14.7h2.2l0.2,0.6l3.6,13.7
				c0.5,1.9,1,3.6,1.3,5c0.5,1.8,0.8,3.2,1.1,4c0.3,1.1,0.6,2,1,3c0.1,0.2,0.3,0.4,0.5,0.6c0.3,0.3,0.7,0.4,1,0.4l0.8,0.1V42h-4.5
				l-1.8,0.4L332,42.4z M332.8,29.6h0.2l0.8,3.3c0.1,0.5,0.3,1,0.4,1.5c0.3,1,0.5,1.8,0.5,2.6v2.2c0,0.4-0.1,0.8-0.3,1.2l1-0.2
				l1.4,0c-0.2-0.3-0.5-0.6-0.6-0.9c-0.4-1-0.8-2.1-1-3.2c-0.2-0.8-0.6-2.2-1.1-4c-0.4-1.4-0.8-3.1-1.3-5l-3.1-12l-0.1,0.5l0.5,2.1
				c0.5,1.8,0.9,3.7,1.2,5.6L332.8,29.6z M322.9,40.2h1c-0.2-0.4-0.2-0.8-0.2-1.3c0-0.2,0-0.3,0-0.5c-0.2,0.4-0.3,0.8-0.5,1.3
				C323.1,39.9,323,40.1,322.9,40.2z M327.5,28h3.2l-1.1-4.4c-0.1-0.7-0.2-1.5-0.4-2.2c-0.2,0.7-0.4,1.3-0.5,2
				c-0.2,0.7-0.4,1.5-0.6,2.2C327.9,26.5,327.7,27.3,327.5,28z M220.7,42.4h-0.9v-3.2l1.1,0.3c0.2,0.1,0.5,0.1,0.7,0.1
				c0.1-0.1,0.1-0.2,0.1-0.3c0.1-0.8,0.1-1.5,0-2.1l-1.6-5.8h-5l-0.3,1.1c-0.5,1.9-0.8,3.3-1.1,4.4c-0.2,0.7-0.3,1.5-0.4,2.3
				c0,0.1,0,0.3,0.1,0.4c0.2,0,0.4,0,0.6-0.1l1.1-0.4V42h-8.1v-2.7l1.1,0.3c0.3,0.1,0.6,0.1,0.9,0c0.1-0.1,0.2-0.3,0.3-0.5
				c1.3-3.3,2.4-6.8,3.3-10.4l0.5-1.8l4-14.7h2.2l0.2,0.6l3.6,13.7c1.2,4.5,2,7.6,2.4,9.1c0.3,1.1,0.6,2,0.8,2.5l0.2,0.4
				c0.2,0.5,0.8,0.9,1.5,0.9l0.8,0.1V42h-4.5l-1.8,0.4L220.7,42.4z M221.5,29.8l1.9,7c0.1,0.9,0.1,1.7,0,2.5c0,0.4-0.1,0.8-0.3,1.1
				l1-0.2l1.5,0c-0.2-0.3-0.4-0.5-0.6-0.9l-0.2-0.5c-0.2-0.6-0.6-1.6-0.9-2.7c-0.4-1.5-1.2-4.6-2.4-9l-2.5-9.6l-0.2,0.7
				c0,0.1-0.1,0.3-0.1,0.4l0,0.1c0.4,1.5,0.8,3,1.5,4.4l1.7,6.7H221.5z M210.9,40.2h1c-0.2-0.4-0.2-0.8-0.2-1.3
				c0-0.3,0.1-0.6,0.1-0.8c-0.2,0.5-0.4,1.1-0.6,1.6C211.1,39.9,211,40.1,210.9,40.2z M216.2,28h3.5l-1.1-4.4
				c-0.3-0.6-0.5-1.2-0.7-1.9c-0.1,0.6-0.3,1.2-0.4,1.7c-0.2,0.7-0.4,1.5-0.6,2.2C216.6,26.5,216.4,27.3,216.2,28z M217.8,17.1h1.1
				l-0.6-2.1L217.8,17.1z M205,42.4h-2.2l-0.3-0.4c-3.5-6.2-6.1-10.7-8-14c-1.4-2.3-2.7-4.4-3.9-6.3v12.5c-0.1,1.3-0.1,2.6,0,3.8
				c0,0.3,0.2,0.6,0.5,0.9c0.2,0.2,0.6,0.3,0.9,0.3c0,0,0,0,0,0l0.9,0V42l-2.6,0l-1.6-0.4H185v-1.7l0.8-0.2c0.5,0,1-0.4,1.1-1
				c0.5-2.7,0.8-5.5,0.8-8.2v-9.3c0.2-2,0-3.9-0.6-5.7c-0.2-0.3-0.7-0.6-1.2-0.6c0,0-0.1,0-0.1,0l-2,0.2l1.8-2.3h3l1-0.4h0.8
				l0.3,0.3c2,2.4,3.7,5,5,7.8c2.4,4.1,4.5,7.9,6.7,11.3V18.6c-0.1-1-0.4-2.1-0.8-3c-0.1-0.2-0.2-0.4-0.4-0.5
				c-0.3-0.2-0.5-0.3-0.7-0.3l-0.8-0.1v-2l2.4,0l1.4,0.4l1.6-0.4h2V15l-0.7,0.1c-0.2,0-0.5,0.1-0.7,0.3c-0.2,0.3-0.3,0.6-0.3,0.9
				c-0.2,1.7-0.3,3.5-0.4,5.2v18.4c0,0.2,0,0.4,0,0.6L205,42.4z M188.4,39.8l0.7,0l0.7,0.2c-0.5-0.5-0.8-1.1-0.9-1.8
				c0-0.1,0-0.3,0-0.4c-0.1,0.4-0.1,0.8-0.2,1.2C188.6,39.3,188.5,39.5,188.4,39.8z M189,15.7l1.5,2.4c1.6,2.6,3.4,5.6,5.5,9
				c1.8,3.1,4.2,7.1,7.3,12.6l0-3.4l-0.7-1.1c-2.7-4.1-5.4-8.8-8.4-14c-1.2-2.6-2.7-4.9-4.5-7.1l-0.8,0.3h-0.3
				c0.1,0.1,0.1,0.2,0.2,0.3C188.9,15.1,188.9,15.4,189,15.7z M203.2,14.9L203.2,14.9c0.2,0.4,0.3,0.8,0.5,1.1
				c0-0.4,0.2-0.8,0.3-1.2l-0.5,0.1L203.2,14.9z M429.4,42.3c-0.1,0-0.2,0-0.3,0c-1.8-0.1-3.6-0.4-5.3-0.9l-0.1,0h-4.4v-1.8l0.9,0
				c0.5,0,1-0.3,1.2-0.7c0.3-1.7,0.5-3.7,0.4-5.7V21.6c0.1-2,0-4-0.4-5.9c-0.2-0.3-0.6-0.7-1.2-0.6l-0.9,0v-2.4h2.6l2,0.4
				c0.7-0.2,1.5-0.4,2.2-0.5c0.8-0.1,1.7-0.1,2.5,0c3.4-0.2,6.7,1.3,8.9,4.1c2.2,3.2,3.3,7.1,3.1,10.9c0.2,3.7-0.9,7.4-3.1,10.5
				C435.5,40.8,432.5,42.3,429.4,42.3z M422.9,39.6l1.5,0.2c0,0,0.1,0,0.1,0c-0.1-0.2-0.2-0.5-0.3-0.8c-0.1-1-0.1-2,0-3l-0.1-21.2
				l-0.2,0.1l-1.2-0.3c0.1,0.1,0.2,0.3,0.2,0.4c0.5,2.3,0.7,4.4,0.5,6.5v11.4c0.1,2.1,0,4.2-0.5,6.3C423,39.5,422.9,39.5,422.9,39.6
				z M428.5,39.8c0.1,0,0.2,0,0.2,0c2.1,0,3.9-1.1,5-2.8c1.5-2.6,2.2-5.6,2-8.6c0.2-3.5-0.6-6.8-2.2-9.7c-1.2-1.9-3.4-3.1-5.6-3.1
				c0,0-0.1,0-0.1,0h-1.9l0.1,20.5c-0.1,0.9-0.1,1.8,0,2.7c0,0.2,0.2,0.4,0.5,0.6C427.1,39.7,427.7,39.8,428.5,39.8z M431.8,14.9
				c1.3,0.7,2.4,1.7,3.2,2.9c1.8,3.2,2.6,6.9,2.4,10.6c0.2,3.3-0.6,6.6-2.3,9.5c-0.1,0.2-0.3,0.4-0.4,0.6c0.5-0.4,0.9-0.9,1.2-1.4
				c2-2.7,2.9-6.1,2.7-9.5c0.2-3.6-0.8-7.1-2.7-9.9C434.9,16.4,433.5,15.4,431.8,14.9z M262.9,42.3c-0.1,0-0.2,0-0.2,0
				c-1.6,0-3.2-0.3-4.8-0.7l-0.1,0.1h-5v-2.2l0.9,0.1c0.6,0,0.9-0.2,1.1-0.7c0.4-1.8,0.6-3.7,0.5-5.7l0-11.6c0.2-2.1,0-4.2-0.5-6.2
				c-0.1-0.3-0.6-0.6-1.1-0.6c0,0,0,0,0,0l-0.9,0v-2.1h2.5l2,0.4c0.8-0.2,1.5-0.4,2.3-0.5c0.8-0.1,1.7-0.1,2.5,0
				c3.3-0.3,6.7,1.3,8.8,4.1c2.3,3.2,3.4,7.1,3.2,10.9c0.2,3.7-0.9,7.4-3.1,10.5C269.1,40.8,266.1,42.3,262.9,42.3z M256.2,39.9h0.6
				l0.3-0.4l0.6,0.2c0.1,0,0.2,0.1,0.3,0.1c-0.1-0.2-0.2-0.5-0.3-0.7l0-0.2v-24c0,0-0.1,0-0.1,0l-0.2,0.1l-1-0.2c0,0,0,0.1,0.1,0.1
				c0.6,2.3,0.8,4.5,0.6,6.8l0,11.4c0.1,2.1,0,4.2-0.6,6.3C256.4,39.6,256.3,39.8,256.2,39.9z M259.5,38.8c0.1,0.3,0.3,0.5,0.6,0.6
				c0.6,0.3,1.2,0.4,1.9,0.4c2.1,0.1,4.2-1,5.3-2.8c1.4-2.6,2.1-5.6,1.9-8.6c0.2-3.5-0.6-6.8-2.2-9.7c-1.2-1.9-3.4-3.1-5.6-3.1
				c0,0-0.1,0-0.1,0h-1.8V38.8z M265.5,14.9c1.2,0.7,2.3,1.6,3.1,2.9c1.8,3.2,2.6,6.9,2.4,10.6c0.2,3.2-0.6,6.6-2.2,9.5
				c-0.1,0.1-0.2,0.3-0.3,0.4c0.4-0.4,0.7-0.7,1-1.2c1.9-2.7,2.9-6.1,2.7-9.5c0.2-3.6-0.8-7.1-2.8-9.9
				C268.4,16.5,267,15.5,265.5,14.9z M534.2,42.2c-3.1,0-6-1.7-7.5-4.5c-1.9-3.2-2.9-6.9-2.8-10.6c-0.1-3.7,0.8-7.4,2.8-10.5
				c1.4-2.7,4.3-4.4,7.4-4.4c3.1,0,6,1.7,7.5,4.5c2,3.2,3,6.9,2.9,10.7c0.1,3.7-0.9,7.3-2.9,10.5C540.2,40.5,537.4,42.2,534.2,42.2z
				 M534.2,15c-1.7,0.1-3.2,1.3-3.8,3c-1.3,3-1.8,6.1-1.7,9.3c-0.1,3.2,0.5,6.4,1.7,9.3c0.6,1.8,2.1,3,3.8,3.1
				c1.8-0.1,3.3-1.3,3.9-3c1.3-3,1.9-6.1,1.7-9.3c0.2-3.2-0.4-6.4-1.7-9.3C537.5,16.3,536,15.1,534.2,15z M529.9,15.4
				c-0.6,0.5-1.1,1.2-1.5,1.9c-1.8,2.9-2.7,6.3-2.6,9.7c-0.1,3.5,0.8,6.8,2.5,9.8c0.2,0.4,0.5,0.9,0.9,1.2c-0.1-0.3-0.3-0.6-0.4-0.9
				c-1.4-3-2-6.5-1.9-9.9c-0.1-3.4,0.5-6.7,1.8-9.9C529,16.7,529.4,16,529.9,15.4z M538.7,15.5c0.5,0.6,0.8,1.2,1.1,1.9
				c1.3,3.1,2,6.5,1.8,9.9c0.2,3.3-0.5,6.8-1.8,9.9c-0.1,0.2-0.1,0.4-0.2,0.6c0.2-0.3,0.5-0.6,0.7-1c1.8-2.9,2.7-6.2,2.6-9.6h0
				l0-0.2c0.1-3.4-0.8-6.8-2.6-9.7C539.8,16.7,539.3,16.1,538.7,15.5z M311.1,42.1c-3.1,0-6.1-1.5-8-4.1c-2.1-3.2-3.1-6.9-2.9-10.7
				c-0.2-3.8,0.8-7.6,3-10.9c1.8-2.8,4.9-4.4,8.1-4.4c0.1,0,0.2,0,0.2,0c1.3,0,2.6,0.2,3.9,0.6l0.2,0.1l0.8,0.5l0.1-0.2h2v2.2
				c0,0.4,0,0.8,0,1.2l0,5.4h-2.9l0-0.9c0.1-1.8-0.4-3.5-1.3-5c-0.7-0.9-1.9-1.5-3.1-1.4c0,0,0,0,0,0c-2,0-3.9,1.2-4.8,2.9
				c-1.4,2.8-2.1,5.9-1.9,9.1c-0.2,3.3,0.5,6.5,2,9.4c0.9,1.9,2.9,3.1,5,3.1c0.1,0.1,0.2,0,0.3,0c1.1,0,2.2-0.4,3-1.2
				c0.8-1,1.3-2.4,1.3-3.8l0-0.8h2.2l0.1,0.8c0,0.6,0,1.2,0,1.8l0,3.7l-0.3,0.3c-0.9,0.7-1.9,1.3-2.9,1.6c-1.1,0.4-2.3,0.6-3.5,0.6
				C311.4,42.1,311.3,42.1,311.1,42.1z M316.6,38.4c-0.2,0.3-0.4,0.6-0.6,0.8c0,0,0,0,0,0c0.2-0.1,0.4-0.2,0.6-0.4V38.4z
				 M304.6,17.4c-1.9,2.9-2.8,6.3-2.6,9.9c-0.2,3.5,0.7,6.9,2.6,9.8c0.5,0.7,1,1.2,1.7,1.7c-0.5-0.5-1-1.1-1.3-1.8
				c-1.6-3.1-2.3-6.7-2.2-10.2C302.6,23.6,303.2,20.4,304.6,17.4z M315.6,14.9c0.1,0.1,0.2,0.2,0.2,0.3c0.4,0.6,0.7,1.2,0.9,1.9
				v-0.5c0-0.4,0-0.7,0-1.1v-0.1c-0.1,0-0.2,0-0.2,0h-0.2L315.6,14.9z M174.1,42.1c-3.2,0-6.2-1.6-8.1-4.2c-2.1-3.2-3.2-6.9-3-10.7
				c-0.2-3.9,0.8-7.7,3-11c1.9-2.7,4.9-4.3,8.1-4.3c0.1,0,0.2,0,0.2,0c1.3,0,2.6,0.2,3.8,0.6l1.7,0.5l1.9-0.1l0,2.4l-0.3,1v1.1
				c0,0.5,0,1,0,1.5c0,0.1,0,0.4,0,0.7c0,0.4,0,0.9,0,1.4l-0.1,0.8h-2.7l0-0.9c0.1-1.8-0.4-3.5-1.3-5c-0.6-0.9-1.7-1.4-2.9-1.4
				c-0.1,0-0.1,0.1-0.2,0c-2,0-3.9,1.2-4.8,2.9c-1.4,2.8-2,6-1.8,9.2c-0.2,3.3,0.5,6.5,2.1,9.4c1,1.9,3,3.1,5.2,3.1
				c0.7,0.1,1.2,0.1,1.8,0c0.1,0,0.3-0.1,0.5-0.2c0,0,0-0.1,0-0.1c0-0.7,0-1.1,0-1.5l0-3.2c0.2-1.2,0.1-2.3-0.1-3.4
				c-0.4-0.3-0.8-0.5-1.3-0.6l-0.8,0v-2.1l2.8,0l1.9,0.6l1.7-0.4h2.2v2.2l-0.9,0c0,0,0,0,0,0c-0.3,0-0.6,0.2-0.7,0.4
				c-0.3,1.1-0.4,2.4-0.3,3.6l0,2.9c0,0,0,0.1,0,0.1l0.5-0.1l0,2.2l-0.4,0.3c-1.2,0.7-2.4,1.3-3.7,1.6c-1.1,0.4-2.3,0.6-3.6,0.6
				C174.3,42.1,174.2,42.1,174.1,42.1z M178.7,30.3c0.4,1.3,0.4,2.7,0.2,4l0,3c0.1,0.5,0.1,1,0,1.6c0,0.1,0,0.2,0,0.4
				c0.3-0.1,0.7-0.3,1-0.5l0-0.1c-0.1-0.5-0.1-0.9,0-1.4l0-2.7c-0.1-1.4,0-2.9,0.4-4.3l-0.8,0.2L178.7,30.3z M168.3,16.1
				c-0.3,0.3-0.6,0.7-0.9,1.1c-1.9,3-2.9,6.5-2.7,10c-0.2,3.5,0.8,6.9,2.7,9.7c0.7,1,1.6,1.8,2.6,2.3c-0.7-0.6-1.4-1.4-1.8-2.3
				c-1.7-3.1-2.5-6.6-2.3-10.2c-0.2-3.3,0.5-6.8,2-9.9C168,16.6,168.1,16.4,168.3,16.1z M178.2,14.5c0.2,0.2,0.4,0.4,0.6,0.6
				c0.3,0.5,0.6,1.1,0.9,1.7l0-0.7l0.3-1.2l-0.4,0L178.2,14.5z M563,42c-0.4,0-0.8,0-1.2-0.1l-0.2-0.1c-0.7-0.3-1.4-0.8-1.9-1.4
				c-0.7-0.7-1.2-1.6-1.7-2.5c-0.5-1.2-1.3-2.8-2.1-5.1c-0.2-0.3-0.3-0.8-0.5-1.3c-0.2-0.7-0.5-1.1-0.6-1.4l-1.4,0.8v2.4
				c-0.1,2,0.1,3.9,0.5,5.8c0.2,0.3,0.7,0.6,1.2,0.6l0.9,0v2h-9.2v-2.7l1.1,0.3c0.6,0.1,1.1-0.2,1.2-0.7c0.5-1.8,0.6-3.8,0.5-5.7
				l0-11.8c0.2-2,0-4-0.5-5.9c-0.1-0.4-0.6-0.6-1.1-0.6c0,0,0,0,0,0l-0.9,0v-2.1l2.6,0l1.5,0.4c0.6-0.2,1.2-0.4,1.8-0.6l2.1,0
				c0.2,0,0.3,0,0.5,0c1.8,0,3.5,0.8,4.8,2.1c1.4,1.6,2.1,3.7,1.9,5.8c0,1.5-0.3,3.1-1,4.5c-0.6,1.2-1.5,2.1-2.5,2.9
				c1.1,3.3,2.5,6.6,4.2,9.7c0.6,1,1.5,2.2,2.6,2.2h0.9V42h-2.4C563.7,42,563.4,42,563,42z M562.2,40.2c0.2,0,0.4,0,0.7,0
				c-0.5-0.5-0.9-1.1-1.3-1.8c-1.7-3.1-3.1-6.3-4.2-9.7l-0.9,0.5c0.4,0.7,0.7,1.4,0.8,1.8c0.1,0.4,0.2,0.8,0.4,1.1
				c0.8,2.3,1.5,3.9,2.1,5c0.3,0.8,0.8,1.4,1.4,2.1C561.3,39.7,561.7,40,562.2,40.2z M550.3,40.2h2.1c-0.1-0.1-0.1-0.2-0.2-0.3
				c-0.5-2.3-0.7-4.4-0.6-6.4V28h0.1l0.1-13.2c-0.1,0-0.2,0.1-0.3,0.1l-0.3,0.1l-0.6-0.1c0,0,0,0,0,0.1c0.6,2.2,0.8,4.4,0.6,6.6
				l0,11.6c0.2,2,0,4.2-0.6,6.2C550.7,39.7,550.5,40,550.3,40.2z M555.4,28.3c0,0,0.1,0.1,0.1,0.1l0.2-0.2
				C555.6,28.3,555.5,28.3,555.4,28.3z M553.6,26.6h1c1.1,0,1.9-0.4,2.4-1.1c0.6-1.2,0.9-2.7,0.8-4.1c0.1-1.6-0.3-3.2-1-4.5
				c-0.5-0.8-1.5-1.4-2.5-1.4c0,0-0.1,0-0.1,0h-0.6L553.6,26.6z M556.9,14.5c0.6,0.4,1,0.9,1.4,1.5c0.9,1.7,1.3,3.5,1.3,5.4
				c0.1,1.4-0.1,2.8-0.7,4.2c0.3-0.4,0.6-0.8,0.9-1.3c0.5-1.1,0.8-2.5,0.8-3.8c0.1-1.7-0.4-3.4-1.5-4.6
				C558.5,15.2,557.7,14.8,556.9,14.5z M470.6,42c-0.3,0-0.6,0-0.9-0.1c-0.6,0.1-1.2,0.1-1.8,0h-2.4v-2.4h0.9c0.3,0,0.6,0,0.7-0.1
				l0.1-0.2c0.5-1.2,0.8-2.5,0.8-3.9v-2.8c0-0.5,0-0.9,0-1.4l0-8c-0.9,2.9-1.8,5.7-2.7,8.6c-0.9,3-1.7,5.6-2.2,7.5l-0.7,2.5h-1.8
				l-0.2-0.6c-1.2-3.7-2.4-7.3-3.6-11.1l-0.1-0.4c-0.8-2.3-1.5-4.5-2.2-6.6v11.8c-0.1,1.5,0.1,2.8,0.5,4.2c0.1,0.2,0.6,0.4,1,0.4
				l1-0.2V42l-2.5,0l-1.6-0.4h-3.9v-2l0.9,0c0.3,0,0.5-0.1,0.8-0.2c0.1-0.3,0-0.7-0.1-1l0-0.2v-5.5c0-3.2,0-5.8,0.4-7.8
				c0.2-1.2,0.1-2.4,0.1-3.5c0-0.5-0.1-1-0.1-1.3v-0.8c0.3-1.3,0.3-2.5,0.1-3.6c-0.3-0.3-0.7-0.4-1.2-0.4l-0.9,0.1v-2.5h3.6l1.1-0.3
				c0.3-0.1,0.7-0.1,1.1,0.1l0.2,0.1l0.1,0.2c0.3,0.5,0.5,1.1,0.6,1.6c0.7,2.3,1.5,4.5,2.2,6.6c0.5,1.5,1,2.9,1.4,4.4
				c0.8,2.5,1.7,4.8,2.5,6.9c0.7-2,1.4-4.3,2.2-6.8l1.9-6.1c0.6-2.2,1-3.6,1.3-4.4c0.1-1.6,1-2.5,1.9-2.5h0.5l0.1-0.4v0.4h4V15h-0.9
				c-0.3,0-0.6,0-0.7,0.1c-0.4,1.3-0.5,2.5-0.4,3.8l0,12.7c-0.1,2.5,0.1,5,0.6,7.4c0.1,0.4,0.4,0.7,0.8,0.7c0,0,0,0,0,0l0.9,0V42
				h-2.5C471.2,42,470.9,42,470.6,42z M469.6,40.2l0.1,0c0.4,0,0.7,0.1,1.1,0c-0.2-0.3-0.3-0.6-0.4-0.9c-0.5-2.6-0.7-5.2-0.6-7.8
				V18.9c-0.1-1.4,0-2.9,0.4-4.3c0-0.1,0.1-0.2,0.1-0.2h-0.7v16.7c0,0.5,0,1,0,1.5l0,2.7c0,1.6-0.3,3.1-0.9,4.5
				c0,0.1-0.1,0.3-0.1,0.4c0.3,0.1,0.7,0,1,0L469.6,40.2z M452.2,39.8l1.1,0.1c0,0,0-0.1-0.1-0.1c-0.5-1.7-0.7-3.3-0.6-4.9l0-10.3
				c0,0.2-0.1,0.4-0.1,0.6c-0.4,1.8-0.4,4.4-0.4,7.4v5.4C452.3,38.5,452.3,39.2,452.2,39.8z M453.1,14.4l1.2,3.4
				c1.3,3.5,2.6,7.3,4,11.4l0.1,0.4c1,3.1,2,6.1,3,9.2c0.1-0.4,0.2-0.9,0.4-1.3l-1-2.8c-1-2.7-2-5.4-3.1-8.6
				c-0.5-1.4-0.9-2.9-1.4-4.4c-0.7-2.1-1.4-4.4-2.2-6.7c-0.1-0.3-0.1-0.5-0.2-0.7L453.1,14.4z M452.6,18.9c0,0.2-0.1,0.3-0.1,0.5
				l0,0.6c0,0.4,0,0.8,0.1,1.2c0,0,0,0.1,0,0.1V18.9z M452.2,14.5c0.1,0.1,0.1,0.1,0.2,0.2l0.2,0.4c0,0,0,0.1,0,0.1l0-0.7H452.2z
				 M454.1,14l-0.1,0C454.1,14.1,454.1,14,454.1,14z M137,42c-0.3,0-0.6,0-1-0.1c-0.5,0.1-1.1,0.1-1.8,0H133v-2.6l1,0.2
				c0.3,0,0.6-0.1,0.7-0.4c0.2-1.1,0.4-2.4,0.3-3.7V22.3c-1.3,3.2-2.4,6.5-3.4,9.6c-0.6,1.9-1.1,3.5-1.5,5c-0.6,1.9-1,3.4-1.3,4.5
				l-0.2,0.6h-1.7l-0.2-0.6c-0.6-1.8-1.1-3.5-1.7-5.3c-0.7-2.1-1.4-4.2-2-6.3c-0.7-2.3-1.5-4.6-2.4-6.8c0,1.9-0.1,3.7-0.4,5.4
				c-0.3,2.1-0.2,3.8-0.1,5.1c0,0.6,0.1,1.1,0.1,1.5c-0.1,1.5,0,2.8,0.4,4.2c0.1,0.2,0.6,0.4,1,0.4l1-0.1V42l-2.6,0l-1.6-0.6h-3.8
				v-1.7l0.9-0.1c0.3,0,0.6-0.1,0.8-0.4c0.2-0.3,0.4-0.7,0.4-1.2l0-5.4c0-3.2,0-5.8,0.4-7.8c0.2-1.2,0.1-2.4,0.1-3.5
				c0-0.5-0.1-1-0.1-1.3l0-1c0.4-1.1,0.5-2.2,0.5-3.3c-0.3-0.3-0.7-0.4-1.1-0.4l-0.8,0.1l-0.3-2.5h3.7l1-0.3c0.4-0.2,1-0.2,1.4,0.1
				l0.2,0.2c0.3,0.5,0.5,1.1,0.6,1.6c1.3,3.9,2.5,7.5,3.7,11l0.9,2.7c0.5,1.5,1,2.9,1.5,4.2c0.7-2,1.4-4.3,2.1-6.7l1.9-6.1
				c0.6-2.2,1-3.6,1.3-4.4c0.1-1.5,0.9-2.4,1.8-2.5c0.3-0.1,0.6-0.1,0.9,0h3.4V15h-0.9c-0.3,0-0.6,0-0.7,0.1
				c-0.3,1.3-0.5,2.6-0.4,3.8l0,12.7c0,2.5,0.2,5,0.6,7.5c0.1,0.4,0.4,0.6,0.8,0.6c0,0,0,0,0,0l0.9,0V42h-2.5
				C137.6,42,137.3,42,137,42z M136.1,40.2c0.5,0,0.9,0.1,1.2,0c-0.2-0.3-0.3-0.6-0.4-0.9c-0.1-0.5-0.2-1-0.2-1.5
				c-0.1,0.6-0.2,1.3-0.3,1.9C136.3,40,136.2,40.1,136.1,40.2z M118.2,39.6l0.9,0.1c-0.2-0.7-0.4-1.4-0.5-2.1v0.4
				C118.6,38.6,118.4,39.1,118.2,39.6z M119.4,14.5l1.2,3.3c0.4,1.1,0.8,2.2,1.2,3.2c1,2.6,2,5.4,2.9,8.2c0.7,2.1,1.3,4.2,2,6.3
				c0.4,1.1,0.7,2.2,1.1,3.4c0.2-0.6,0.4-1.3,0.6-2.1l-0.6-1.5c-0.8-2.1-1.5-4.2-2.4-6.6l-0.9-2.7c-1.2-3.5-2.4-7.1-3.7-11.1
				c-0.1-0.3-0.1-0.5-0.2-0.7L119.4,14.5z M136,14.4c0,0-0.2,0.2-0.2,0.8l-0.1,0.4c-0.2,0.4-0.4,1.1-0.6,2c0-0.1,0-0.1,0.1-0.1
				l1.2-3l-0.1,0L136,14.4z M136.8,14.4v0.1C136.8,14.5,136.8,14.5,136.8,14.4L136.8,14.4z M521.4,42h-9.2v-2.5l0.9,0c0,0,0,0,0.1,0
				c0.5,0,0.9-0.3,1.1-0.8c0.4-1.7,0.5-3.6,0.4-5.5V21.4c0.1-2,0-4-0.4-6c-0.2-0.3-0.6-0.6-1.2-0.6l-0.9,0v-2.1h2.6l2,0.4l1.9-0.4
				l2.7,0v2.4l-0.9,0c0,0,0,0,0,0c-0.5,0-0.9,0.3-1.1,0.7c-0.4,1.6-0.6,3.4-0.5,5.2l0,12.2c-0.1,1.9,0,3.8,0.5,5.6
				c0.1,0.4,0.6,0.6,1,0.6l1-0.1V42z M515.4,40.2h2.7c-0.2-0.2-0.3-0.5-0.4-0.8c-0.5-2.1-0.7-4.1-0.6-6.2l0-12
				c-0.1-1.9,0-3.9,0.6-5.9c0.1-0.2,0.2-0.4,0.3-0.6l-1.2,0.3l-0.9-0.2c0,0,0,0.1,0,0.1c0.5,2.3,0.7,4.4,0.5,6.6v11.8
				c0.1,2,0,4-0.5,6C515.9,39.7,515.7,40,515.4,40.2z M368.2,42h-9.1v-2.6l1.1,0.2c0.5,0.1,1-0.2,1.2-0.7c0.3-1.7,0.3-3.6,0-5.4
				l0-12c0.3-2.1,0.3-4.1,0-6c-0.1-0.3-0.6-0.5-1.1-0.6l-0.5,0l-1.6-2.1h3.4l2,0.4l1.9-0.4l2.7,0v2.3l-0.9,0c-0.5,0-1,0.3-1.2,0.8
				c-0.3,1.6-0.5,3.4-0.4,5.2v12.2c-0.1,1.9,0,3.8,0.4,5.7c0.1,0.3,0.6,0.6,1.1,0.6l0.9,0V42z M362.6,40.2h2.5
				c-0.2-0.2-0.3-0.5-0.5-0.8c-0.5-2.2-0.6-4.2-0.5-6.2V21.2c-0.1-1.9,0-3.9,0.5-5.8c0.1-0.2,0.2-0.4,0.4-0.6l-1.2,0.3l-0.7-0.2
				c0,0,0,0.1,0,0.1c0.4,2.3,0.4,4.5,0.1,6.6l0,11.7c0.3,1.9,0.3,4,0,6C362.9,39.6,362.8,40,362.6,40.2z M351.8,42h-2.7l-2.2-0.4
				l-2.1,0.4l-2.9,0v-2.3l0.8,0c0.5,0,1-0.2,1.4-0.4c0.1-0.1,0.2-0.3,0.3-0.5c0.1-0.6,0.1-1.2,0-1.9l0-21.2H344
				c-1.7,0-3.2,0-3.5,0.5c-0.1,0.1-0.2,0.3-0.3,0.5c0,0.3,0,0.6,0,0.9c0,0.7,0,1.4,0,2l0,0.9h-2.5l0-0.8c0-1.2,0.2-2.4,0.7-3.5
				c0-0.3,0-0.5,0-0.8v-3.4h2.2v0.6c0.5,0,1.2,0,1.9,0h9.9c0.7,0.1,1.3,0.1,1.9,0v-0.6l2.2,0l0.1,0.8c0,0.5,0,0.9,0,1.4l0,3.5
				c0,0.6,0,1.3,0,2l0,0.8h-2.3l0-0.9c0-1.1-0.4-2.1-1.2-2.8c-0.7-0.7-1.7-1.1-2.8-1.1c0,0-0.1,0-0.1,0c-0.1,0-0.2,0-0.2,0h-0.7
				v21.1c-0.1,0.8-0.1,1.4,0,2.1c0,0.1,0.1,0.2,0.3,0.3c0.4,0.1,0.7,0.1,1,0l1.1-0.3V42z M346.9,39.7L348,40
				c-0.2-0.2-0.3-0.5-0.4-0.8c-0.1-0.9-0.1-1.7,0-2.5l0-22.4h-1.4v22.5c0.1,0.7,0.1,1.5,0,2.3c-0.1,0.3-0.2,0.6-0.4,0.9L346.9,39.7z
				 M352.4,14.3c0.7,0.3,1.3,0.7,1.9,1.2c0.2,0.2,0.4,0.4,0.6,0.7v-1.9c0,0-0.1,0-0.1,0C354.1,14.4,353.3,14.3,352.4,14.3z
				 M354.7,12.5C354.7,12.5,354.7,12.5,354.7,12.5C354.7,12.5,354.7,12.5,354.7,12.5C354.7,12.5,354.7,12.5,354.7,12.5z M163.1,42
				h-4.5l-2-0.1h-2.6v-2.6l1.2,0.4c0.2,0.1,0.4,0.1,0.6,0.1c0.1-0.1,0.1-0.3,0-0.5l-0.1-0.2l0-0.2c0.1-0.7,0.1-1.4,0-2
				c0-0.7-0.2-1.6-0.5-2.5c-0.1-0.4-0.2-0.9-0.3-1.3l-0.8-1.6h-5.1l-0.7,2.8c-0.3,1.1-0.5,2-0.6,2.8c-0.1,0.6-0.1,1.4,0,2.1l0,0.2
				l-0.1,0.2c0,0.1,0,0.2-0.1,0.3c0.1,0,0.3,0,0.4-0.1l1.1-0.4V42h-8.1v-2.8l1.2,0.4c0.2,0.1,0.5,0.1,0.7,0c0.1-0.1,0.4-0.3,0.5-0.6
				c1.2-3.3,2.3-6.8,3.2-10.3l4.9-16.4h2.2l0.2,0.6l3.6,13.7c1.1,4.5,2,7.6,2.4,9c0.3,1.1,0.6,2,1,3c0.1,0.3,0.2,0.4,0.4,0.6
				c0.4,0.3,0.6,0.4,1,0.4l0.8,0.1V42z M157.6,40.1l2.3,0.1c-0.2-0.3-0.5-0.6-0.6-1c-0.4-1-0.7-2-1-3.1c-0.4-1.4-1.3-4.5-2.4-9.1
				l-3.2-12.2l-0.7,2.2h1l-0.3,1.1c0,0.1-0.1,0.2-0.1,0.3l0,0.1c0.4,1.5,0.8,3,1.5,4.5l1.7,6.7h-0.5l1.3,2.5
				c0.2,0.6,0.3,1.1,0.4,1.5c0.3,1.1,0.5,2,0.5,2.9c0.1,0.7,0.1,1.4,0,2.1C157.7,39.2,157.7,39.7,157.6,40.1z M144.8,40.2h1.1
				c-0.1-0.4-0.1-0.9,0-1.3c0-0.5,0-1,0-1.6c-0.3,0.8-0.6,1.6-0.8,2.3C145,39.9,144.9,40.1,144.8,40.2z M150,28h3.7l-1.1-4.4
				c-0.3-0.6-0.5-1.3-0.8-1.9c-0.2,0.6-0.3,1.2-0.5,1.8c-0.1,0.5-0.3,0.9-0.5,1.4C150.5,26,150.2,27,150,28z M248.3,41.8
				c-0.3,0-0.7,0-1-0.1l-5.6,0c-1-0.1-1.9-0.2-2.8-0.5h-2.9c-0.2,0-0.3,0-0.5,0l0.1-1.7h0.3c0.4-0.1,0.8-0.3,0.9-0.7
				c0.4-1.9,0.5-4.1,0.4-6.2v-0.7c0-0.2,0-0.5,0-0.8l0-7.5c0-0.5,0-1,0-1.6c0.1-2.2-0.1-4.4-0.6-6.6c-0.1-0.3-0.6-0.6-1.1-0.6
				c0,0,0,0-0.1,0l-0.9,0v-2.1l2.7,0l1.5,0.4c1-0.2,2-0.4,2.9-0.4c1.4-0.1,2.9-0.1,4.4,0c0.5-0.1,1.3-0.1,2,0
				c0.7,0.3,1.1,0.8,1.1,1.3c0.1,0.5,0,1-0.2,1.4c0,0.5,0,1,0,1.5v3.2h-2.3l0.1-0.9c0.1-1-0.2-2.1-0.8-3c-0.2-0.2-1.5-0.2-2.5-0.2
				h-2v9.2h1.9c0.9,0.1,1.7,0,2.4-0.3c0.3-0.3,0.4-0.7,0.4-1.1l0-0.8h2.1l0.1,0.8c0,0.5,0,1.1,0,1.6c0,0.4,0,1,0,1.5l0,1.6
				c0,0.5,0,1,0,1.6l-0.1,0.8H246v-0.9c0-0.5,0-1.1-0.1-1.2c-0.7-0.4-1.5-0.5-2.2-0.4h-2.4v5.4c-0.1,1.6,0,3.2,0.4,4.7
				c0.2,0.1,0.8,0.2,1.7,0.2c1.5,0.2,2.9-0.1,4-0.9c0.7-1.1,1.2-2.3,1.2-3.6l0-0.8h2.2l0,0.8c0,0.9,0,1.8,0,2.7
				c-0.1,0.8-0.3,1.4-0.5,2.1c0,0.2,0,0.4,0,0.5c0,0.2,0,0.4,0,0.6c0,0.6-0.3,1.1-0.7,1.5l-0.3,0.2
				C248.9,41.8,248.6,41.8,248.3,41.8z M247,40h0.4c0.5,0.1,0.8,0.1,1.1,0.1l0-0.6c0-0.1,0-0.3,0-0.4l-0.1,0.1
				C248.1,39.5,247.5,39.8,247,40z M238.4,39.5l0.8,0c0.5,0.1,0.9,0.2,1.4,0.3c-0.4-0.2-0.6-0.6-0.6-0.9c-0.4-1.7-0.6-3.5-0.5-5.2
				l0-18.9c-0.2,0-0.4,0.1-0.6,0.1l-0.2,0.1l-0.5-0.1c0,0,0,0,0,0c0.6,2.5,0.8,4.9,0.7,7.2c0,0.5,0,1,0,1.4l0,7.7c0,0.3,0,0.4,0,0.6
				l0,0.8c0.1,2.2,0,4.5-0.5,6.8C238.4,39.4,238.4,39.5,238.4,39.5z M245.6,26.9c0.3,0.1,0.6,0.2,0.9,0.4v-0.4c0-0.1,0-0.2,0-0.4h0
				C246.3,26.7,245.9,26.8,245.6,26.9z M245.7,14.5c0.6,0.1,1.1,0.3,1.4,0.7l0-0.2l0.3-0.3l-0.1-0.2l0,0c-0.3,0-0.8,0-1.2,0.1
				C246,14.5,245.9,14.5,245.7,14.5z M489.9,41.8c-0.3,0-0.7,0-1-0.1l-5.6,0c-1-0.1-1.9-0.2-2.7-0.5h-1.6c-0.5,0-1,0.1-1.6,0
				c-0.1,0-0.1,0-0.2,0l0.2-1.7c0.1,0,0.1,0,0.1,0c0.4,0,0.8-0.3,1-0.7c0.5-2,0.6-4.1,0.5-6.3l0-10.6c0.2-2.3,0.1-4.5-0.4-6.6
				c-0.1-0.3-0.6-0.5-1.1-0.6l-0.9,0v-2.1h2.4l1.8,0.4c1.1-0.2,2.1-0.4,3.2-0.3c1.4-0.1,2.9-0.1,4.4,0c0.5-0.1,1.3-0.1,2,0l0.7,0.1
				v1.3c0,0.1,0,0.3,0,0.5c0,0.2,0,0.4,0,0.6c0,0.5,0,1.1,0,1.7c0,0.3,0,0.8,0,1.3l0,1.9h-2.3l0-0.9c0.1-1-0.2-2-0.7-2.8
				c-0.8-0.5-1.8-0.7-2.7-0.5l-2.2,0v9.2h1.9c0.9,0.1,1.7,0,2.5-0.3c0.2-0.3,0.4-0.7,0.3-1.1l0-0.9h2.2l0.1,0.8c0,0.5,0,1.1,0,1.6
				c0,0.4,0,1,0,1.5c0.1,0.4,0.1,1.1,0,1.7c0,0.4,0,0.9,0,1.5l-0.1,0.8h-2.3l0.1-1c0.1-0.4-0.1-0.8-0.3-1.2
				c-0.6-0.3-1.4-0.4-2.1-0.4h-2.3v5.4c-0.1,1.6,0,3.2,0.4,4.7c0.2,0.1,0.8,0.2,1.8,0.2c1.4,0.1,2.7-0.2,3.8-0.9
				c0.8-1,1.3-2.3,1.4-3.6l1.7,0c0,0.9,0,1.8,0,2.7c0,0.8-0.2,1.5-0.5,2.2c0,0.1,0,0.3,0,0.4l0,0.5c0,0.6-0.2,1.4-0.9,1.6
				C490.6,41.8,490.2,41.8,489.9,41.8z M488.9,40h0.2c0.5,0.1,0.8,0.1,1.2,0.1l0-0.5c0-0.1,0-0.2,0-0.3
				C489.8,39.6,489.3,39.8,488.9,40z M480.7,39.5l0.3,0c0.6,0.2,1.2,0.3,1.8,0.4c-0.4-0.2-0.7-0.5-0.7-1c-0.4-1.7-0.6-3.5-0.5-5.2
				l-0.1-18.9c-0.2,0-0.4,0.1-0.5,0.1l-0.2,0l-0.6-0.1c0,0,0,0.1,0,0.1c0.6,2.4,0.7,4.8,0.4,7.2l0,10.5c0.2,2.3,0,4.6-0.6,6.8
				c0,0,0,0.1-0.1,0.1H480.7z M487.6,26.9c0.3,0.1,0.6,0.2,0.9,0.4c0-0.1,0-0.2,0-0.3c0-0.2,0-0.3,0-0.4
				C488.2,26.7,487.9,26.8,487.6,26.9z M488.1,14.6c0.4,0.2,0.8,0.4,1.2,0.7l0.1,0c0-0.2,0-0.3,0-0.4l0-0.2l0-0.2l0-0.1
				c-0.3,0-0.6,0-0.9,0.1C488.3,14.6,488.2,14.6,488.1,14.6z M507.9,41.8c-0.3,0-0.6,0-1-0.1l-5.6,0c-1-0.1-1.8-0.2-2.6-0.5h-2.4
				c-0.3,0.1-0.7,0.1-1,0.1l-0.8-0.1v-1.7l1.5-0.1c0.2-0.1,0.4-0.3,0.5-0.6c0.5-2,0.6-4.1,0.5-6.3l0-1.4c0-0.4,0-0.7,0-1l0-5.6
				c0-0.4,0-0.7,0-1l0-1.6c0.1-2.2,0-4.4-0.5-6.6c-0.2-0.3-0.6-0.6-1.1-0.6c0,0,0,0,0,0l-0.9,0v-2.1h2.5l2,0.4l1.9-0.4l2.7,0v2.4
				l-0.9-0.1c-0.5,0-0.9,0.2-1.1,0.7c-0.4,1.6-0.6,3.5-0.5,5.3v12.7c-0.2,1.6,0,3.2,0.5,4.7c0.2,0.1,0.8,0.2,1.6,0.2
				c1.4,0.1,2.7-0.2,3.8-0.9c0.8-1.1,1.2-2.3,1.3-3.6l0-0.8h2.2l0,0.8c0,0.9,0,1.8,0,2.6c-0.1,0.8-0.2,1.5-0.4,2.2
				c0,0.4,0,0.7,0,1.1c0.1,0.5-0.3,1.2-0.9,1.5C508.7,41.7,508.3,41.8,507.9,41.8z M506.8,39.9h0.3c0.6,0.1,1.1,0.1,1.5,0l0-0.1
				l-0.2,0c0-0.3,0-0.6,0-0.8l0-0.1c0,0,0,0,0,0l-0.2,0.2C507.8,39.5,507.3,39.7,506.8,39.9z M498.2,39.5l0.9,0
				c0.4,0.1,0.9,0.2,1.4,0.3c-0.3-0.2-0.5-0.5-0.5-0.8c-0.5-1.7-0.7-3.5-0.5-5.3l0-12.6c-0.1-2,0.1-4,0.6-5.9
				c0.1-0.2,0.2-0.4,0.3-0.6l-1.2,0.3l-0.9-0.2c0,0,0,0.1,0,0.1c0.6,2.5,0.7,4.8,0.6,7.2v1.5c0,0.3,0,0.7,0,1.1l0,5.5
				c0,0.3,0,0.7,0,1.2l0,1.3C499,34.8,498.8,37.1,498.2,39.5C498.3,39.4,498.3,39.4,498.2,39.5z"/>
		</g>
		<g>
			<path class="st3" d="M552.7,27.4h1.1h0.8c1.2,0.1,2.4-0.5,3-1.6c0.8-1.4,1.2-3,1.1-4.6c0.1-1.7-0.3-3.4-1.1-4.9
				c-0.7-1.2-1.9-1.9-3.3-1.8h-1.4v3c0,1,0,2,0,3L552.7,27.4z M557.8,27.4c1.1,3.7,2.6,7.3,4.5,10.7c1.1,1.8,2.2,2.7,3.3,2.7l0,0
				v0.6h-0.9h-0.6c-0.7,0.1-1.4,0.1-2.1,0c-0.6-0.3-1.1-0.6-1.6-1.1c-0.6-0.7-1.1-1.5-1.5-2.3c-0.8-1.6-1.5-3.3-2.1-5
				c-0.2-0.4-0.3-0.8-0.5-1.2c-0.6-1.8-1.3-2.7-2-2.7h-1.9v4.6c-0.1,2,0.1,4,0.5,6c0.3,0.8,1.2,1.3,2.1,1.3v0.6h-1.6l-2.1-0.5
				l-2.1,0.5h-1.6v-1.1c1,0.1,1.9-0.4,2.3-1.3c0.5-2,0.7-4,0.5-6.1V21.4c0.2-2.1,0-4.2-0.5-6.2c-0.3-0.8-1.1-1.4-2-1.3v-0.4h1.4
				l1.8,0.5c0.6-0.2,1.3-0.4,2-0.5c0.6-0.1,1.3-0.1,1.9,0c1.7-0.1,3.5,0.5,4.6,1.8c1.2,1.4,1.8,3.2,1.7,5.1c0,1.4-0.3,2.9-0.9,4.2
				c-0.6,1.2-1.5,2.3-2.6,3 M543.8,27.6c0.2,3.6-0.8,7.1-2.7,10.2c-2,3.7-6.6,5.1-10.3,3.1c-1.3-0.7-2.4-1.8-3.1-3.1
				c-1.9-3.1-2.8-6.6-2.7-10.2c-0.1-3.6,0.8-7.1,2.7-10.1c2-3.7,6.6-5.1,10.3-3.1c1.3,0.7,2.4,1.8,3.1,3.1
				C543,20.5,543.9,24.1,543.8,27.6 M534.2,40.5c2,0,3.5-1.2,4.7-3.7c1.3-3,1.9-6.3,1.8-9.6c0.2-3.3-0.4-6.5-1.8-9.5
				c-0.8-2.6-3.6-4.1-6.2-3.2c-1.5,0.5-2.7,1.7-3.2,3.2c-1.3,3-1.9,6.3-1.8,9.6c-0.1,3.3,0.5,6.6,1.8,9.7
				C530.3,39,532.1,40.4,534.2,40.5 M513.1,13.5h1.7l2.1,0.4l2.1-0.4h1.7v0.7c-0.9-0.1-1.7,0.4-2,1.2c-0.5,1.9-0.7,3.8-0.5,5.7v12.1
				c-0.1,2,0,3.9,0.5,5.9c0.3,0.8,1.1,1.3,2,1.3V41h-1.7l-2.1-0.5l-2.1,0.5h-1.7v-0.6c0.9,0,1.6-0.5,2-1.3c0.5-1.9,0.7-3.9,0.5-5.9
				V21.4c0.2-2.1,0-4.2-0.5-6.2c-0.3-0.8-1.1-1.4-2-1.3L513.1,13.5z M495.4,13.5h1.7l2.1,0.4l2.1-0.4h1.7v0.6c-0.9,0-1.7,0.5-2,1.3
				c-0.5,1.8-0.7,3.7-0.5,5.6v12.7c-0.1,1.7,0,3.3,0.5,4.9c0,0.5,1.1,0.8,2.5,0.8c1.6,0.2,3.1-0.2,4.4-1.1c0.9-1.2,1.5-2.7,1.5-4.3
				h0.5c0,0.9,0,1.7,0,2.6c-0.1,0.7-0.3,1.4-0.5,2.1l0,0c0,0.4,0,0.7,0,1.1c0,0.4-0.1,0.7-0.5,0.9c-0.6,0.1-1.1,0.1-1.7,0H505
				c-1.2,0.1-2.4,0.1-3.7,0c-0.9-0.1-1.7-0.2-2.5-0.5l-1.7,0.4c-0.6,0.1-1.2,0.1-1.8,0v-0.4c0.9,0.1,1.7-0.4,2-1.2
				c0.5-2.2,0.7-4.4,0.5-6.6V22c0.2-2.3,0-4.6-0.6-6.8c-0.3-0.8-1.1-1.3-2-1.2L495.4,13.5z M477.4,13.5h1.5l1.8,0.5
				c1.1-0.2,2.2-0.3,3.3-0.3h4.3c0.7-0.1,1.3-0.1,2,0c0.1,0.2,0.1,0.4,0,0.6c0,0.2,0,0.3,0,0.5c0,0,0,0,0,0.6c0,0.6,0,1.1,0,1.7
				c0,0.5,0,0.9,0,1.3v1.1h-0.5c0-1.2-0.3-2.4-0.9-3.4c-1-0.7-2.3-1-3.5-0.8h-2.9v11h2.8c1.6,0,2.6,0,3-0.5c0.5-0.5,0.8-1.1,0.8-1.8
				h0.5c0,0.5,0,1,0,1.5c0,0.5,0,1,0,1.5c0.1,0.5,0.1,1.1,0,1.6c0,0.5,0,1,0,1.5h-0.5c0.1-0.7-0.2-1.4-0.6-2
				c-0.8-0.4-1.8-0.6-2.7-0.5h-3v6.3c-0.1,1.7,0,3.3,0.5,4.9c0,0.5,1.1,0.8,2.6,0.8c1.6,0.2,3.1-0.2,4.4-1.1
				c0.9-1.3,1.4-2.7,1.5-4.3h0.2c0.1,0.9,0.1,1.7,0,2.6l-0.5,2.1c0,0,0,0.5,0,0.6V40c0,0.3-0.1,0.7-0.4,0.9c-0.6,0.1-1.1,0.1-1.7,0
				h-2.1c-1.2,0.1-2.4,0.1-3.7,0c-0.9-0.1-1.8-0.2-2.7-0.5l-1.7,0.4c-0.6,0.1-1.1,0.1-1.7,0v-0.4c0.8,0,1.6-0.4,2-1.2
				c0.5-2.2,0.6-4.4,0.5-6.6V22c0.2-2.3,0.1-4.5-0.4-6.8c-0.3-0.8-1.1-1.3-2-1.2V13.5z M449.6,13.5h1.4h1.4l0,0
				c0.4-0.2,0.8-0.4,1.2-0.5c0.1-0.1,0.3-0.1,0.5,0c0,0,0,0.7,0.5,1.4c1.3,4,2.5,7.6,3.7,11.1s2.3,6.5,3.3,9.3
				c1.4-4.1,3-9.3,4.9-15.2c0.6-2.1,1.1-3.7,1.4-4.5v0.1c0-1.1,0.8-1.8,1.1-1.8h0.4h0.6h1.4h1.3v0.7c-0.8,0-1.3,0.2-1.6,0.7
				c-0.4,1.3-0.5,2.7-0.4,4v3v9.6c-0.1,2.6,0.1,5.1,0.6,7.6c0.2,0.8,0.9,1.4,1.8,1.4l0,0v0.6h-1.6h-1.8H468h-1.6v-0.7
				c0.7,0.5,1.6,0.3,2.1-0.4c0.1-0.2,0.2-0.3,0.2-0.5c0.3-1.4,0.3-2.8,0-4.2v-2.8c0-0.5,0-1,0-1.4v-7.6c0,0,0-0.9,0-2.3s0-2.5,0-3.5
				c-1.6,5-3,9.7-4.3,13.9c-1.3,4.2-2.2,7.6-2.7,9.4h-0.5c-1.2-3.8-2.4-7.6-3.7-11.5c-1.3-3.9-2.6-7.6-4-11.5c0,3.7,0,7.1,0,10.2
				s0,5.3,0,6.7c-0.1,1.5,0,3,0.5,4.5c0.4,0.7,1.2,1,2,1v0.6h-1.4l-1.7-0.5l-1.5,0.4h-1.6v-0.5c0.6-0.1,1.1-0.3,1.5-0.6
				c0.2-0.6,0.2-1.2,0-1.8c0-0.5,0-1.1,0-1.8s0-2,0-3.7c0-3,0-5.7,0.4-7.6c0.4-1.9,0-3.7,0-4.9v-0.8c0.3-1.3,0.3-2.6,0.1-4
				c-0.5-0.6-1.3-0.9-2.1-0.8L449.6,13.5z M425.1,30.4c0,2.4,0,4.3,0,5.8c-0.1,0.9-0.1,1.8,0,2.7c0.1,0.6,0.5,1.1,1.1,1.3
				c0.7,0.3,1.5,0.5,2.4,0.5c2.4,0.1,4.7-1.1,5.9-3.2c1.6-2.7,2.3-5.9,2.1-9.1c0.2-3.5-0.6-7-2.3-10.1c-1.4-2.2-3.9-3.5-6.5-3.5
				h-1.4H425c0,1.1,0,2.4,0,3.7s0,3.3,0,6L425.1,30.4z M423.8,40.4l-2.1,0.5h-1.7v-0.5c0.9,0,1.7-0.5,2.1-1.3c0.4-2,0.6-4,0.5-6.1
				V21.5c0.1-2,0-4.1-0.5-6.1c-0.4-0.8-1.2-1.3-2.1-1.2v-0.7h1.7l2.1,0.4l2.3-0.5c0.8-0.1,1.5-0.1,2.3,0c3.2-0.2,6.2,1.2,8.2,3.7
				c2.1,3,3.2,6.7,3,10.4c0.2,3.6-0.8,7.1-2.9,10c-1.8,2.4-4.6,3.8-7.6,3.7C427.3,41.2,425.6,40.9,423.8,40.4L423.8,40.4
				 M407.9,13.1h0.8l3.6,13.7c1.2,4.5,2,7.6,2.4,9.1c0.3,1,0.6,2,1,3c0.2,0.4,0.5,0.8,0.8,1.1c0.4,0.2,0.9,0.4,1.4,0.5V41h-1.6
				l-2.1-0.5l-2,0.5h-1.7v-0.6c0.5,0,1-0.2,1.4-0.5c0.4-0.3,0.6-0.7,0.5-1.1c0,0,0-1.1,0-2.1c0-1-0.5-2.4-0.9-4l-0.7-2.2h-6.3
				l-0.5,1.8c-0.5,1.8-0.8,3.3-1,4.4c-0.1,0.8-0.1,1.6,0,2.4c0,0.5,0.1,0.9,0.5,1.2c0.4,0.3,0.9,0.5,1.4,0.5v0.6h-1.4l-1.8-0.5
				l-1.8,0.5h-1.4v-1c0.5,0.1,0.9,0.1,1.4,0c0.2-0.4,0.3-0.9,0.3-1.4c1.4-3.4,2.5-7,3.3-10.6l0.5-1.8L407.9,13.1z M407.9,18
				c-0.5,1.7-1,3.4-1.4,5.3c-0.5,1.8-1,3.7-1.4,5.6h5.7c-0.5-1.8-0.9-3.7-1.4-5.5L407.9,18 M390.5,27.2c0.1,3.6-0.8,7.1-2.7,10.2
				c-1.3,2.5-3.9,4-6.7,4c-2.8,0-5.4-1.6-6.7-4c-1.9-3-2.9-6.6-2.7-10.2c-0.1-3.6,0.8-7.1,2.7-10.1c1.3-2.5,3.9-4,6.7-4
				c2.8,0,5.4,1.6,6.7,4C389.7,20.2,390.6,23.7,390.5,27.2 M381.1,40.5c2.2-0.1,4-1.6,4.6-3.7c1.4-3,2-6.3,1.8-9.6
				c0.1-3.3-0.5-6.5-1.8-9.5c-0.7-2.6-3.4-4.1-6-3.3c-1.6,0.5-2.9,1.7-3.3,3.3c-1.3,3-1.9,6.3-1.8,9.6c-0.2,3.3,0.4,6.6,1.8,9.7
				C377.1,39,379,40.4,381.1,40.5 M360,13.5h1.7l2.1,0.4l2.1-0.4h1.6v0.7c-0.8,0-1.6,0.4-2,1.2c-0.4,1.9-0.6,3.8-0.5,5.7v12.1
				c-0.1,2,0,3.9,0.5,5.9c0.3,0.8,1.1,1.3,2,1.3V41h-1.6l-2.1-0.5l-2.1,0.5H360v-0.6c0.9,0.1,1.8-0.5,2.2-1.3c0.3-1.9,0.3-3.9,0-5.9
				V21.4c0.3-2,0.3-4.1,0-6.2c-0.3-0.8-1.2-1.4-2.1-1.3L360,13.5z M339.4,12.7h0.5l0,0c0,0,0,0.5,0.5,0.5c0.8,0.1,1.5,0.1,2.3,0h9.8
				c0.8,0.1,1.6,0.1,2.4,0c0.3,0,0.5-0.3,0.5-0.5l0,0h0.5c0,0.4,0,0.9,0,1.3c0,0,0,0.8,0,1.3s0,1.5,0,2.2s0,1.4,0,2h-0.6
				c0-2.6-2.1-4.8-4.8-4.8c-0.2,0-0.3,0-0.5,0h-1.4c0,1.4,0,2.9,0,4.5s0,3.3,0,5.3v6.8c0,2.6,0,4.3,0,5.3c-0.1,0.8-0.1,1.5,0,2.3
				c0.2,0.4,0.5,0.8,0.8,1.1c0.5,0.1,1.1,0.1,1.6,0v0.6h-1.9l-2.2-0.5l-2.2,0.5h-1.9v-0.2c0.6,0.1,1.2,0.1,1.8,0
				c0.4-0.2,0.6-0.6,0.8-1.1c0.1-0.7,0.1-1.5,0-2.2c0-1,0-2.7,0-5.3v-7.3c0-2.7,0-4.8,0-6.1s0-2.6,0-3.7H344c-1.5-0.2-3,0.1-4.3,0.9
				c-0.7,1.2-1.1,2.6-1.1,4h0.8c0-0.7,0-1.4,0-2.1c0-0.7,0-1.4,0-2.1s0-0.8,0-1.1s0-0.9,0-1.4 M329.3,13.2h0.8l3.6,13.7
				c1.2,4.5,2,7.6,2.4,9.1c0.3,1,0.6,2,1,3c0.2,0.4,0.5,0.8,0.8,1.1c0.4,0.2,0.9,0.4,1.4,0.5v0.6h-1.6l-2.1-0.5l-2,0.5h-1.7v-0.8
				c0.5,0,1-0.2,1.4-0.5c0.4-0.3,0.6-0.7,0.5-1.1c0,0,0-1.1,0-2.1c0-1-0.5-2.4-0.9-4l-0.7-2.2H326l-0.5,1.8c-0.5,1.8-0.8,3.3-1,4.4
				c-0.1,0.8-0.1,1.6,0,2.4c0,0.5,0.1,0.9,0.5,1.2c0.4,0.3,0.9,0.5,1.4,0.5v0.6H325l-1.8-0.5l-1.8,0.5H320v-1c0.5,0.1,0.9,0.1,1.4,0
				c0.4-0.3,0.7-0.6,0.9-1c1.4-3.4,2.5-7,3.3-10.6l0.5-1.8L329.3,13.2z M329.3,18.1c-0.5,1.7-1,3.4-1.4,5.3c-0.5,1.8-1,3.7-1.4,5.6
				h5.3c-0.4-1.8-0.9-3.7-1.4-5.5l-1.4-5.4 M316.9,14.2h0.5c0,0.5,0,1,0,1.4c0,0.5,0,0.8,0,1.1c0,0.5,0,1.1,0,1.6v1.9
				c0,0.4,0,0.8,0,1.1h-0.8c0.1-1.9-0.4-3.8-1.4-5.5c-0.9-1.2-2.4-1.9-3.9-1.8c-2.4,0-4.5,1.3-5.6,3.4c-1.5,2.9-2.2,6.2-2.1,9.5
				c-0.1,3.4,0.6,6.7,2.1,9.7c1.1,2.2,3.3,3.6,5.8,3.7c1.4,0.1,2.9-0.5,3.9-1.5c1-1.2,1.6-2.8,1.6-4.4h0.5c0,0.6,0,1.2,0,1.8
				c0,0.6,0,1.2,0,1.8c0,0.2,0,0.5,0,0.7v0.8c-0.8,0.7-1.7,1.2-2.7,1.5c-1.1,0.3-2.3,0.5-3.4,0.5c-3,0.1-5.9-1.3-7.6-3.7
				c-2-3-3-6.5-2.8-10.1c-0.2-3.7,0.8-7.4,2.9-10.5c1.7-2.5,4.6-4,7.6-4c1.2,0,2.5,0.2,3.7,0.6l1.9,0.6l0,0l0,0 M276.7,13.9
				c0.5,0,1.1,0,1.6,0l2.1,0.4l2.2-0.4h1.4v0.7c-0.5,0-0.9,0.2-1.3,0.5c-0.3,0.2-0.5,0.6-0.6,1c-0.1,1-0.1,2.1,0,3.1
				c0,1.5,0,3.5,0,6s0,5.4,0,7.1c0.1,1.3,0.4,2.7,0.8,4c0.4,1.1,1,2.1,1.9,2.8c2.3,1.6,5.5,1.1,7.1-1.2c0.2-0.3,0.4-0.6,0.5-0.9
				c1.2-3.5,1.6-7.2,1.4-10.9v-4.4c0.1-2,0-4-0.5-5.9c-0.3-0.8-1.1-1.4-2-1.4v-0.6h1.5l1.5,0.4l1.5-0.5h1.4v0.6
				c-0.8,0-1.5,0.5-1.8,1.3c-0.4,2-0.6,4-0.5,6.1v4.7c0.2,4.1-0.5,8.1-2.1,11.9c-1,2.3-3.4,3.7-5.9,3.6c-1.4,0.1-2.8-0.3-4-1.1
				c-1.2-0.8-2.1-1.9-2.5-3.2c-0.5-1.2-0.8-2.4-0.9-3.7c0-1.4,0-3.4,0-6v-6.4c0-2-0.4-4.1-1.1-6c-0.3-0.8-1.1-1.3-2-1.2L276.7,13.9z
				 M258.5,30.4c0,2.4,0,4.3,0,5.8s0,2.4,0,2.7c0.1,0.6,0.5,1.1,1.1,1.3c0.7,0.3,1.5,0.5,2.4,0.5c2.4,0.1,4.7-1.1,6-3.2
				c1.5-2.8,2.2-5.9,2.1-9.1c0.2-3.5-0.6-7-2.3-10.1c-1.4-2.2-3.9-3.5-6.5-3.5h-1.4l-1.1,0.5c0,1.1,0,2.4,0,3.7s0,3.3,0,6
				L258.5,30.4z M257.3,40.8l-1.7,0.1H254v-0.5c0.7-0.1,1.3-0.6,1.6-1.3c0.5-2,0.6-4,0.5-6.1V21.5c0.1-2.1-0.1-4.2-0.5-6.3
				c-0.3-0.8-1.1-1.3-2-1.2v-0.5c0.5,0,1.1,0,1.6,0l2.1,0.4l2.3-0.5c0.8-0.1,1.6-0.1,2.4,0c3.2-0.2,6.2,1.2,8.2,3.7
				c2.1,3,3.1,6.7,2.9,10.4c0.2,3.6-0.8,7.1-2.8,10c-1.8,2.4-4.6,3.8-7.6,3.7c-1.8-0.1-3.5-0.4-5.2-0.8l0,0 M235.4,13.5h1.5l1.8,0.5
				c0.9-0.2,1.9-0.4,2.9-0.5h4.3c0.6-0.1,1.3-0.1,1.9,0c0.2,0.1,0.4,0.4,0.4,0.6c0,0.2,0,0.3,0,0.5l-0.2,0.6c0,0.6,0,1.2,0,1.7v2.4
				h-0.5c0.1-1.2-0.3-2.4-0.9-3.4c-0.5-0.6-1.6-0.6-3.3-0.6h-2.9V17c0,0.9,0,1.8,0,2.7v6.6h2.9c1.6,0,2.6,0,3-0.5
				c0.5-0.5,0.7-1.2,0.7-1.8h0.5c0,0.5,0,1,0,1.5V27v1.6c0,0.5,0,1,0,1.5H247c0-0.7-0.2-1.4-0.6-2c-0.8-0.4-1.8-0.6-2.7-0.5h-3.2
				v6.3c-0.2,1.7,0,3.4,0.5,4.9c0,0.5,1.1,0.8,2.5,0.8c1.6,0.2,3.2-0.3,4.6-1.2c0.9-1.2,1.5-2.7,1.5-4.3h0.5c0,0.9,0,1.7,0,2.6
				c-0.1,0.7-0.3,1.4-0.5,2.1c0,0.2,0,0.4,0,0.6c0,0.2,0,0.3,0,0.5c0,0.3-0.1,0.7-0.4,0.9c-0.6,0.1-1.1,0.1-1.7,0h-2.2
				c-1.2,0.1-2.4,0.1-3.6,0c-0.9-0.1-1.8-0.2-2.7-0.5l-1.7,0.4c-0.6,0.1-1.2,0.1-1.8,0v-0.4c0.9,0.1,1.7-0.4,2.1-1.2
				c0.4-2.2,0.6-4.4,0.5-6.6v-1.4c0-0.4,0-0.8,0-1.1v-5.6c0-0.4,0-0.7,0-1.1V22c0.1-2.3-0.2-4.6-0.7-6.8c-0.4-0.8-1.2-1.3-2.1-1.2
				V13.5z M218,13.1h0.8l3.6,13.7c1.2,4.5,2,7.6,2.4,9.1c0.3,1,0.6,2,1,3c0.2,0.4,0.5,0.8,0.8,1.1c0.4,0.2,0.9,0.4,1.4,0.5V41h-1.6
				l-2.1-0.5l-2,0.5h-1.7v-0.6c0.5,0,1-0.2,1.4-0.5c0.3-0.3,0.5-0.7,0.5-1.1c0,0,0-1.1,0-2.1c0-1-0.5-2.4-0.9-4l-0.9-2.2h-6.3
				l-0.5,1.8c-0.5,1.8-0.8,3.3-1,4.4c-0.2,0.8-0.3,1.6-0.4,2.4c0,0.5,0.1,0.9,0.5,1.2c0.4,0.3,0.9,0.4,1.4,0.5v0.6H213l-1.8-0.5
				l-1.8,0.5h-1.4v-1c0.5,0.1,0.9,0.1,1.4,0c0.4-0.3,0.7-0.6,0.9-1c1.4-3.4,2.5-7,3.3-10.6l0.5-1.8L218,13.1z M218,18
				c-0.5,1.7-1,3.4-1.4,5.3c-0.5,1.8-1,3.7-1.4,5.6h5.7l-1.4-5.5C218.9,21.5,218.4,19.7,218,18 M186.1,13.5h1.4h1.4
				c0.3,0,0.5,0,0.8,0h0.4c2,2.3,3.6,4.9,4.9,7.6c2.9,5.1,5.6,9.7,8.3,14v-6.6c0-5,0-8.3,0-10c-0.1-1.2-0.4-2.3-0.8-3.3
				c-0.2-0.3-0.4-0.6-0.7-0.8c-0.4-0.1-0.8-0.1-1.1,0v-0.8h1.3l1.7,0.4l1.6-0.4h1.1v0.7c-0.5,0-0.9,0.2-1.2,0.5c0,0-0.5,0.7-0.5,1.4
				c-0.2,1.7-0.4,3.5-0.4,5.3c0,2.5,0,5.6,0,9.1v9.9c0,0.4,0,0.7,0,1.1h-0.8c-3.3-5.9-6.1-10.7-8.1-14.1c-2-3.4-3.9-6.4-5.5-8.9v8
				c0,3.5,0,6.2,0,8c-0.1,1.3-0.1,2.6,0,4c0,0.5,0.3,1,0.7,1.4c0.5,0.4,1,0.6,1.6,0.6V41h-1.5l-1.7-0.5l-1.7,0.3h-1.2v-0.5
				c1,0,1.8-0.7,1.9-1.7c0.5-2.7,0.8-5.5,0.8-8.3v-9.3c0.1-2-0.1-4-0.6-5.9c-0.4-0.8-1.3-1.2-2.2-1.1L186.1,13.5z M180.5,14h0.5v1.3
				c-0.2,0.4-0.3,0.8-0.4,1.1v1.2c0,0.6,0,1.1,0,1.4c0,0.2,0,0.4,0,0.6c0,0.5,0,1,0,1.4h-1c0.1-1.9-0.4-3.8-1.4-5.5
				c-0.9-1.2-2.4-1.9-3.9-1.8c-2.4,0-4.5,1.3-5.6,3.4c-1.4,3-2.1,6.3-1.9,9.7c-0.2,3.4,0.6,6.7,2.2,9.7c1.1,2.2,3.4,3.6,5.9,3.6
				c0.6,0.1,1.3,0.1,1.9,0c0.4-0.1,0.9-0.3,1.2-0.6V39c0,0,0-0.8,0-1.6v-3.1c0.2-1.3,0.1-2.6-0.3-3.8c-0.5-0.6-1.2-0.9-2-0.9V29h1.7
				l2.1,0.4l1.8-0.4h1.3v0.7c-0.6,0-1.1,0.3-1.4,0.8c-0.4,1.3-0.6,2.7-0.5,4v2.9c-0.1,0.4-0.1,0.7,0,1.1c0.1,0.1,0.3,0.1,0.5,0V39
				c-1.1,0.6-2.3,1.1-3.5,1.5c-1.1,0.3-2.3,0.4-3.4,0.5c-3,0.1-5.9-1.3-7.6-3.8c-2-3-3-6.5-2.8-10.1c-0.2-3.7,0.8-7.4,2.8-10.5
				c1.7-2.5,4.6-4,7.6-4c1.2,0,2.4,0.2,3.6,0.7l1.9,0.6l0,0l0,0 M151.5,13h0.8l4.4,13.8c1.1,4.5,2,7.6,2.4,9.1c0.3,1,0.6,2,1,3
				c0.1,0.4,0.4,0.8,0.8,1.1c0.4,0.3,0.8,0.4,1.3,0.5V41h-1.6l-2.1-0.5l-1.9,0.3H155v-0.5c0.5,0,1-0.2,1.4-0.5
				c0.3-0.3,0.4-0.7,0.3-1.1c0.1-0.7,0.1-1.4,0-2.1c0-1.1-0.5-2.4-0.8-4l-1.1-2.2h-6.3l-0.5,1.8c-0.5,1.8-0.8,3.3-1.1,4.4
				c-0.1,0.8-0.1,1.6,0,2.4c-0.1,0.4-0.1,0.8,0,1.2c0.4,0.3,0.9,0.4,1.4,0.5v0.6H147l-1.8-0.5l-1.8,0.5h-1.4v-1
				c0.5,0.1,0.9,0.1,1.4,0c0.4-0.2,0.7-0.6,1-1c1.3-3.5,2.4-7,3.3-10.6l0.5-1.8L151.5,13z M151.1,17.9c-0.5,1.7-0.9,3.4-1.4,5.3
				c-0.5,1.8-0.9,3.7-1.4,5.6h5.7l-1.4-5.5C152.1,21.5,151.6,19.6,151.1,17.9 M115.6,13.5h1.4h1.5l0,0c0.4-0.2,0.8-0.4,1.2-0.5
				c0,0,0,0,0.5,0c0.2,0.4,0.4,0.9,0.5,1.4c1.3,4,2.5,7.6,3.7,11.1c1.1,3.5,2.3,6.5,3.3,9.3c1.4-4.1,3-9.3,4.9-15.2
				c0.6-2.1,1.1-3.7,1.4-4.5v0.2c0-1.1,0.7-1.8,1.1-1.8l0,0h0.6h1.4h1.2v0.7c-0.8,0-1.3,0.2-1.6,0.7c-0.3,1.3-0.5,2.7-0.4,4v3v9.6
				c-0.1,2.6,0.1,5.1,0.6,7.6c0.2,0.8,0.9,1.4,1.8,1.4l0,0v0.6h-1.7h-1.8h-1.8H132v-0.7c0.7,0.1,1.4-0.3,1.7-0.9
				c0.3-1.4,0.5-2.8,0.4-4.2v-4.3v-7.6c0,0,0-0.9,0-2.3s0-2.5,0-3.5c-0.2,5.2-1.9,9.7-3.2,13.9s-2.3,7.6-2.8,9.4h-0.5
				c-1.1-3.8-2.4-7.6-3.7-11.5c-1.3-3.9-2.6-7.6-4-11.5c0,3.7,0,7.1-0.4,10.2c-0.4,3.1,0,5.3,0,6.7c-0.1,1.5,0,3,0.5,4.5
				c0.4,0.7,1.2,1,2,1V41h-1.4l-1.8-0.6l-1.5,0.4c-0.5,0.1-1,0.1-1.5,0v-0.4c0.5,0,1-0.3,1.4-0.6c0.4-0.5,0.6-1.1,0.7-1.8
				c0-0.5,0-1.1,0-1.8s0-2,0-3.7c0-3,0-5.7,0.4-7.6c0.4-1.9,0-3.7,0-4.9v-0.8c0.3-1.3,0.4-2.7,0.1-4c-0.5-0.6-1.3-0.9-2.1-0.8
				L115.6,13.5z"/>
		</g>
		<g>
			<path class="st3" d="M354.7,200.3L354.7,200.3 M303.7,176.6 M365.5,207.5l-6.5-3.9l-0.5-1.1c-1.5-0.2-2.9-1-3.7-2.3
				c0.9,1.2,2.3,2,3.7,2.3c1.5,0.1,2.9,0,4.3-0.4c-4.9,0-7.1-6.1-7.2-6.2c0.8,0.7,1.8,1.2,2.7,1.6c1.4,0.5,3.7-1.6,3.7-1.6
				c-3,0-7.6-4.3-7.6-4.3c1.5,0.8,3.1,1.3,4.7,1.6c1.4,0,2.4-2.1,2.4-2.1c-1.7,0.2-3.4,0-4.9-0.8c-2-1.4-1.8-2.3-1.8-2.3
				c1,0.3,2,0.5,3,0.7c1.8,0,3-2.4,3-2.4s-2.1,0-3.7-0.8c-1.5-0.8-1.6-3.6-1.6-3.6c0.8,1.9,4.6,0.6,5.5-1.3c-1.8,0.7-5.6-1-5.7-6
				l0,0l0,0c1.8-18.6-6.3-27.2-24.4-26c-3.6-3.1-8.8-3.7-13-1.6c-5.9,3.3-10.7,8.1-14,14c0.8,1.2,1.4,2.4,2.1,3.7
				c-3.9,3.7-5.4,7.6-3.1,11.6h0.7c0.9-0.6,1.8-1.3,2.7-2c3.8-0.5,6.3,0.5,10.1-1.3l2.1,6.2c-0.1,1.3-0.2,2.6-0.5,3.9
				c-0.5,2.1,2.2,3.6,1.2,5.7c-0.5,0.8-0.5,1.7,0,2.5c-1.3,0.8-2.5,1.5-3.9,2.1c2.7,1.3,3.8-1.1,3,4.9L365.5,207.5z"/>
		</g>
		<g>
			<path class="st2" d="M354.8,200.3L354.8,200.3 M303.7,176.6 M306.4,165.1c5.8-4.8,12.1-8.9,18.8-12.2
				C313.6,160.2,308.2,167.1,306.4,165.1 M319.9,358.5c-10.9-40-64.8-111.1-11-141.3C261.7,255.9,311.1,313.9,319.9,358.5
				 M359.3,358.5c10.8-40,64.8-111.1,10.9-141.3C417.5,255.9,368.1,313.9,359.3,358.5 M329.5,156.9c-0.9,0.3-1.5,1.2-1.4,2.2
				c0.6,0.7,1.5,0.9,2.4,0.7c0.9-0.4,1.5-1.3,1.4-2.3c-0.6-0.7-1.6-1-2.5-0.6 M329.3,157.8c-0.4,0.1-0.6,0.5-0.6,0.9
				c0.3,0.2,0.7,0.2,1.1,0c0.4-0.2,0.6-0.5,0.6-0.9C330,157.5,329.6,157.5,329.3,157.8 M311,206.1c-47.3-15.2-84.9,22.8-172.5,4.4
				c-18.6-24-34.8-17.4-22.8-5.3c11.9,12.2,131.2,53.3,179.5,10.3c-33.3,43.8-162.6,2.6-165.4,9.1c0.8,12.2,60.9,22.1,77.2,25.7
				c-15.2-2.6-69.1-15.2-72.1-8.2c8.8,14.5,62.8,21.1,79.4,24.4c-16.1-3-59.6-8.1-65.2-2.6c6.1,9.6,31.4,12.5,50.8,14.5
				c-11.8-0.9-23.6,0.1-35,3c7.6,8.4,33.8,10.6,56.2,11.6c-15.2,0-33.1,2.3-39.1,6.7c12.6,11.1,59.1,5.6,78.2,5.6
				c-14.5,0-59.2,4.3-65.1,9.9c12.6,6.5,31.4,5.6,48.1,3.3c-9.4,1.7-18.4,5.1-26.6,10c17.9,6.7,40.2,1.6,56.1-3.9
				c-12.6,5.8-26.1,15.2-27.1,20.5c13.5,0.5,31.3-11.3,43.1-19.6c-8.7,7.1-15.3,16.3-19.2,26.9c8.4-2.5,16.2-6.7,22.8-12.4
				c-0.8,2-0.6,4.3,0.5,6.2c-5.9,9.5-14.8,21.7-20.5,29.5c-2.5,3.7-5.5,7-8.8,10c-7.6,6.5-18.9,1.4-26.3,7.6c-0.8,0.6-2.8,3.9-1,5.1
				c0.5,0.5,1.9-1.3,2.9-2.1c2.7-2.2,5.9,0,9.4-1.4c1.8,0,2.1,0.7,0,2.4c-6,3.8-9.6,10.5-9.4,17.6c0.8,0,2.1-0.5,2.2-1.1
				c0.5-2.8,1.7-5.4,3.6-7.6c3.5-3.3,4.8-7.1,10-9.6c2.4,7.6,3,16,10.7,19.4c0-7.2-6.2-14.3-4-19.8c2.5-6.8,11.3-10.6,28.1-3.1
				c-3.2-5.7-9.5-9-16.1-8.4c1.2-8.3,6.6-12.1,11-18.4s7.6-11.9,10.8-17.6c2.5,1.5,5.7,1.5,8.2,0c0,1.7,0.2,3.3,0.4,4.9
				c3.4,7.6,3.3,1.7,11.8,5.4c-3,2.5-13.5,15.6-15.9,17.4c5.9-0.6,11.3-7,15.8-8.1c-6.2,9.1-14.6,16.4-24.4,21.4
				c8.3,1.6,16.8-0.9,22.8-6.8c-11.2,22.2-23.7,22.1-42.9,28.3c8.4,2.8,17.4,3.1,25.9,0.8c0.7,7.6-18.4,16.4-34.4,26.5
				c14-0.5,36-3.6,45-16.6c-0.5,12.6-11.9,22.3-19.6,28.2c13.3,0,25.1-8.3,29.7-20.8c6.2,6.5,4.8,10.7-4.8,23.7
				c8.7-1.4,27.9-13.9,27.9-31.2l0,0c0,17.4,19.3,29.8,28,31.2c-9.7-13.1-11.1-17.3-4.9-23.7c4.5,12.5,16.3,21,29.6,21.1
				c-7.6-5.9-19.3-15.6-19.7-28.2c9.1,13,31,16.1,45,16.6c-16-10-35.1-18.7-34.4-26.5c8.5,2.3,17.6,2,26-0.8
				c-19.3-6.2-31.8-6.1-43-28.3c6,5.9,14.6,8.5,22.8,6.8c-9.8-5-18.1-12.4-24.4-21.4c4.5,1.1,9.8,7.6,15.8,8.1
				c-2.4-1.8-12.9-14.8-15.9-17.4c8.4-3.7,8.4,2.6,11.9-5.4c0-1.4,0-3,0-4.9h0.5c1.6,5,7.2,1.8,9.8,0c3.6,5.7,6.6,11.7,10.7,17.6
				c4.1,5.9,9.8,10.1,11,18.4c-6.5-0.6-12.8,2.7-16.1,8.4c16.8-7.6,25.6-3.7,28.1,3.1c2.2,5.5-3.7,12.6-4,19.8
				c7.6-3.4,8.3-12.2,10.7-19.4c5.3,2.5,6.6,6.2,10,9.6c1.9,2.2,3.1,4.8,3.6,7.6c0,0.6,1.4,0.8,2.3,1.1c0.1-7.1-3.4-13.7-9.4-17.7
				c-2.2-1.8-2-2.8,0-2.4c3.5,1,6.8-0.8,9.4,1.4c0.9,0.8,2.3,2.7,2.8,2.1c1.9-1.2,0-4.5-1-5.1c-7.6-6.1-18.4-1.1-26.3-7.6
				c-3.3-2.9-6.3-6.3-8.8-10c-5.7-7.6-14.6-20-20.5-29.5c0.4-0.8,0.7-1.6,0.8-2.5c6.6,3.5,13.5,6.4,20.5,8.8
				c-3.9-10.6-10.6-19.9-19.4-26.9c11.8,8.2,29.5,20,43.1,19.6c-1-5-14.5-14.7-27.1-20.5c15.9,5.5,38.1,10.6,56.2,3.9
				c-8.2-5-17.2-8.4-26.6-10c16.7,2.2,35.5,3.2,48.2-3.3c-5.9-5.6-50.7-9.8-65.1-9.9c19.2,0,65.5,5.5,78.2-5.6
				c-6-4.4-23.7-6.3-39.1-6.7c22.8-1,48.5-3.2,56.2-11.6c-11.4-2.9-23.2-3.9-34.9-3c19.3-2.1,44.6-4.9,50.7-14.5
				c-5.6-5.6-49.1-0.5-65.2,2.6c16.6-3.3,70.5-9.8,79.5-24.4c-3-6.8-57,5.6-72.1,8.2c16.4-3.7,76.1-13.5,77.3-25.7
				c-3-6.5-132.2,34.7-166.2-9.1c48.2,42.8,167.9,2.4,179.5-10.3c11.6-12.6-3.9-18.7-22.8,5.3c-89.8,19-127.2-21.9-176.5-3.2
				l-6.5-3.9l-0.5-1.1c-1.5-0.2-2.9-1-3.7-2.3c1,1.1,2.3,1.9,3.7,2.3c1.5,0.1,2.9,0,4.3-0.4c-4.9,0-7.1-6.1-7.2-6.2
				c0.8,0.6,1.8,1.2,2.7,1.6c1.4,0.5,3.7-1.6,3.7-1.6c-3,0-7.6-4.3-7.6-4.3c1.5,0.8,3.1,1.3,4.7,1.6c1.4,0,2.4-2.1,2.4-2.1
				c-1.7,0.2-3.4,0-4.9-0.8c-2-1.4-1.8-2.3-1.8-2.3c1,0.3,2,0.5,3,0.7c1.8,0,3-2.4,3-2.4s-2.1,0-3.7-0.8c-1.5-0.8-1.6-3.6-1.6-3.6
				c0.8,1.9,4.6,0.6,5.6-1.3c-1.9,0.7-5.7-1-5.8-6l0,0l0,0c1.8-18.6-6.3-27.2-24.4-26c-3.6-3.1-8.8-3.7-13-1.6
				c-5.9,3.3-10.7,8.1-14,14c0.8,1.2,1.4,2.4,2.1,3.7c-3.9,3.7-5.4,7.6-3,11.6c2.4-8.3,11.5-3.7,15.2-9.9c-2.3,6-12.9,3-14.7,9.9
				c0.9-0.6,1.8-1.3,2.7-2c3.8-0.5,6.3,0.5,10.1-1.3l2.1,6.2c-0.1,1.3-0.2,2.6-0.5,3.9c-0.5,2.1,2.2,3.6,1.2,5.7
				c-0.5,0.8-0.5,1.7,0,2.5c-1.3,0.8-2.5,1.5-3.9,2.1c2.7,1.3,3.8-1.1,3,4.9c2.5,0.5,0.6,4.1,0.6,4.1s-1.4,1.1-2.8,2.4
				c-1.4,1.3-5.4,1.1-5.4,1.1l0,0"/>
		</g>
		<g>
			<path class="st3" d="M355.8,174.6c-12,3.1-15.2,8.6-21.5,11.3c-14.2,5.9-14.5,1.2-15.8-2.7c-4,2.8-5.9,7.7-4.9,12.4
				c3.3,5.8,6.7,4.7,14.8,4.3c15.8-5.6,13.8-8.1,21.1-17.7C351.4,180.1,356.2,179.9,355.8,174.6"/>
		</g>
		<g>
			<path class="st2" d="M321.8,200.5c-3.8,0-6.1-0.8-8.5-4.8l0-0.1c-1-4.9,1-9.8,5-12.7l0.3-0.2l0.1,0.3c0.1,0.3,0.2,0.6,0.3,0.8
				c0.6,1.7,1.1,3.3,2.7,4c2.2,1,6.3,0.2,12.5-2.3c2.2-1,4.1-2.3,6.1-3.8c3.6-2.6,7.7-5.5,15.4-7.5l0.3-0.1l0,0.3
				c0.3,3.9-2.1,5.1-4.1,6.3c-0.9,0.5-1.8,1-2.3,1.6c-1.7,2.2-2.9,4-3.9,5.6c-3.4,5.2-5.1,7.8-17.3,12.1l-0.1,0
				c-1,0-1.9,0.1-2.7,0.1C324.2,200.4,323,200.5,321.8,200.5z M313.8,195.5c2.9,4.9,5.7,4.7,11.8,4.3c0.8-0.1,1.7-0.1,2.7-0.1
				c12-4.2,13.5-6.6,17-11.9c1-1.6,2.2-3.4,3.9-5.6c0.7-0.7,1.6-1.2,2.5-1.8c1.9-1.1,4-2.2,3.9-5.4c-7.4,2-11.4,4.8-14.9,7.3
				c-2,1.5-3.9,2.8-6.2,3.8c-6.4,2.7-10.5,3.4-12.9,2.3c-1.8-0.8-2.4-2.6-3-4.3c-0.1-0.2-0.1-0.3-0.2-0.5
				C314.7,186.3,312.9,191,313.8,195.5z"/>
		</g>
		<g>
			<path class="st2" d="M1049.5,562.3c-1.3,6-1,12.2,0.9,18c2.1,3.6,6.2,5.6,10.4,5.1c4.4,0.2,8.7-1.7,11.5-5.2
				c3.3-5.4,5.3-11.6,5.6-17.9l0.7-5.2h72.1l-6.1,47.9c-11.9,8.7-25.3,15-39.7,18.4c-17.7,4.5-35.8,6.6-54.1,6.4
				c-30,0-50.4-5.3-61.3-15.8c-10.9-10.5-15-28.8-11.5-54.9l7.5-59c3.4-26.5,11.9-44.9,25.6-55.3c13.7-10.3,36.9-15.5,69.4-15.5
				s53.6,5.6,64.9,16.9c11.3,11.2,15,30.8,11.8,59l-4.9,39h-100.5L1049.5,562.3z M1057.7,496.8l-0.7,7.1h28.4l0.9-7.5
				c1.3-5.9,0.9-12-1-17.6c-2.1-3.6-6.1-5.6-10.3-5.1c-4.5-0.3-8.8,1.7-11.5,5.2c-3.3,5.3-5.2,11.3-5.5,17.5 M892.4,432
				c1-6.1,1-12.3,0-18.4c-0.6-3.4-2.9-6.3-6.2-7.5l5.5-43.7h81.7l-25.2,199.7c-1.1,4.7-1.1,9.6,0,14.2c1.2,3,3.7,5.4,6.7,6.4
				l-5.5,43.8h-78.3l1.6-13.2c-7.7,4.9-16,8.6-24.7,11.2c-8.8,2.5-17.9,3.8-27,3.7c-19,0-32.1-4.8-39.1-14.5c-7-9.6-9-26.2-6-50
				l7.5-60.7c3.4-27.6,9.9-46.5,19.5-56.8c9.4-10.3,24-15.4,43.5-15.4c7.6,0,15.1,0.9,22.5,2.8c7.8,1.9,15.3,4.6,22.5,8.1L892.4,432
				z M874.5,574.1l11.4-88.8c-1.9-1.1-3.9-1.9-6.1-2.4c-1.8-0.5-3.7-0.8-5.6-0.9c-4.8-0.4-9.5,1.4-12.8,4.9
				c-3.8,6.7-5.9,14.2-6.1,21.8l-5.4,42.4c-1.5,6.7-1.1,13.7,1.2,20.2c2.7,4,7.5,6,12.2,5.4c1.8,0,3.6-0.2,5.4-0.6
				C870.6,575.4,872.6,574.8,874.5,574.1"/>
		</g>
	</g>
	<g>
		<g>
			<path class="st5" d="M425.5,913.4l16.9,0.1l-27.1,79.1l-18.3-0.1l-26.6-79.2l16.9,0l14.8,47.2c0.8,2.8,1.7,6,2.5,9.7
				c0.9,3.7,1.4,6.3,1.6,7.7c0.4-3.3,1.8-9.1,4.1-17.4L425.5,913.4z"/>
			<path class="st5" d="M452.1,992.6l0.2-79.2l16.8,0.1l-0.2,79.2L452.1,992.6z"/>
			<path class="st5" d="M519,948.4l31.4,0.1l-0.1,41c-5.1,1.6-9.9,2.8-14.4,3.5c-4.5,0.7-9.1,1-13.8,1c-11.9,0-21.1-3.6-27.3-10.6
				c-6.3-7-9.4-17.1-9.4-30.3c0-12.8,3.7-22.7,11-29.9s17.5-10.7,30.4-10.6c8.1,0,16,1.7,23.5,4.9l-5.6,13.4
				c-5.8-2.9-11.8-4.4-18-4.4c-7.3,0-13.1,2.4-17.5,7.3c-4.4,4.9-6.6,11.4-6.6,19.6c0,8.6,1.7,15.2,5.2,19.7
				c3.5,4.5,8.6,6.8,15.3,6.8c3.5,0,7.1-0.3,10.7-1.1l0-16.5l-15,0L519,948.4z"/>
			<path class="st5" d="M569.2,993l0.2-79.2l16.8,0l-0.2,79.2L569.2,993z"/>
			<path class="st5" d="M605.9,993.1l0.2-79.2l16.8,0l-0.2,65.3l32.1,0.1l0,13.9L605.9,993.1z"/>
			<path class="st5" d="M717,993.4l-5.7-18.9l-28.9-0.1l-5.8,18.8l-18.1-0.1l28.2-79.4l20.5,0.1l27.8,79.6L717,993.4z M707.3,960.4
				c-5.3-17.1-8.2-26.8-8.9-29c-0.7-2.2-1.1-4-1.4-5.3c-1.2,4.6-4.6,16-10.3,34.2L707.3,960.4z"/>
			<path class="st5" d="M810.8,953.3c0,13-3.8,23-11.2,29.9c-7.4,6.9-18.2,10.4-32.2,10.3l-22.4-0.1l0.2-79.2l24.9,0.1
				c12.9,0,23,3.5,30.1,10.3C807.3,931.5,810.9,941.1,810.8,953.3z M793.4,953.7c0-17-7.4-25.5-22.5-25.6l-8.9,0l-0.1,51.5l7.2,0
				C785.2,979.7,793.3,971.1,793.4,953.7z"/>
			<path class="st5" d="M875.6,993.8l-5.7-18.9l-28.9-0.1l-5.8,18.8l-18.1-0.1l28.2-79.4l20.5,0.1l27.8,79.6L875.6,993.8z
				 M865.9,960.9c-5.3-17.1-8.2-26.7-8.9-29c-0.7-2.2-1.1-4-1.4-5.3c-1.2,4.6-4.6,16-10.3,34.3L865.9,960.9z"/>
			<path class="st5" d="M966,994.1l-18.9-62.2h-0.5c0.6,12.6,1,21.1,1,25.3l-0.1,36.8l-15,0l0.2-79.2l22.9,0.1l18.6,60.6h0.3
				l20-60.5l22.9,0.1l-0.2,79.2l-15.6-0.1l0.1-37.5c0-1.8,0-3.8,0.1-6.1c0.1-2.3,0.3-8.5,0.8-18.4l-0.5,0l-20.6,61.9L966,994.1z"/>
			<path class="st5" d="M1037,994.3l0.2-79.2l16.8,0l-0.2,79.2L1037,994.3z"/>
			<path class="st5" d="M1143.9,994.6l-21.3-0.1l-34.3-60l-0.5,0c0.7,10.6,1,18.1,1,22.6l-0.1,37.3l-15,0l0.2-79.2l21.2,0.1
				l34.2,59.4h0.4c-0.5-10.3-0.8-17.6-0.7-21.8l0.1-37.5l15.1,0L1143.9,994.6z"/>
			<path class="st5" d="M1209.5,994.8l-45.6-0.1l0.2-79.2l45.6,0.1l0,13.8l-28.8-0.1l-0.1,17.4l26.8,0.1l0,13.8l-26.8-0.1l-0.1,20.4
				l28.8,0.1L1209.5,994.8z"/>
			<path class="st5" d="M1291.8,954.7c0,13-3.8,23-11.2,29.9c-7.4,6.9-18.2,10.3-32.2,10.3l-22.4-0.1l0.2-79.2l24.9,0.1
				c12.9,0,23,3.5,30.1,10.3C1288.3,932.9,1291.8,942.4,1291.8,954.7z M1274.3,955.1c0-17-7.4-25.5-22.5-25.6l-8.9,0l-0.1,51.5
				l7.2,0C1266.2,981.1,1274.3,972.4,1274.3,955.1z"/>
			<path class="st5" d="M1372.7,916.1l-0.1,51.2c0,5.8-1.3,11-4,15.4c-2.6,4.4-6.4,7.8-11.4,10.1c-5,2.3-10.8,3.5-17.6,3.5
				c-10.2,0-18.1-2.7-23.7-7.9c-5.6-5.2-8.4-12.4-8.4-21.4l0.1-51l16.7,0.1l-0.1,48.5c0,6.1,1.2,10.6,3.6,13.4
				c2.4,2.9,6.5,4.3,12.2,4.3c5.5,0,9.5-1.4,12-4.3c2.5-2.9,3.7-7.4,3.7-13.5l0.1-48.4L1372.7,916.1z"/>
			<path class="st5" d="M1425.7,929.1c-6.3,0-11.2,2.3-14.7,7.1c-3.5,4.7-5.2,11.3-5.3,19.8c-0.1,17.6,6.5,26.5,19.8,26.5
				c5.6,0,12.3-1.4,20.2-4.1l0,14.1c-6.5,2.7-13.8,4-21.8,4c-11.5,0-20.3-3.5-26.4-10.6c-6.1-7-9.1-17-9.1-30.1
				c0-8.2,1.5-15.4,4.5-21.6c3-6.2,7.3-10.9,13-14.2c5.6-3.3,12.2-4.9,19.7-4.9c7.7,0,15.4,1.9,23.2,5.6l-5.5,13.6
				c-3-1.4-5.9-2.7-8.9-3.7C1431.5,929.6,1428.6,929.1,1425.7,929.1z"/>
			<path class="st5" d="M1511,995.6l-5.7-18.9l-28.9-0.1l-5.8,18.8l-18.1-0.1l28.2-79.4l20.5,0.1l27.8,79.6L1511,995.6z
				 M1501.4,962.7c-5.3-17.1-8.2-26.7-8.9-29c-0.7-2.3-1.1-4-1.4-5.3c-1.2,4.6-4.6,16-10.3,34.3L1501.4,962.7z"/>
			<path class="st5" d="M1572.9,929.5c-6.3,0-11.2,2.3-14.7,7.1c-3.5,4.7-5.2,11.4-5.3,19.8c-0.1,17.6,6.5,26.5,19.8,26.5
				c5.6,0,12.3-1.4,20.2-4.1l0,14.1c-6.5,2.7-13.8,4-21.8,4c-11.5,0-20.3-3.6-26.4-10.6c-6.1-7-9.1-17-9.1-30.1
				c0-8.2,1.5-15.4,4.5-21.6c3-6.2,7.3-10.9,13-14.2c5.6-3.3,12.2-4.9,19.7-4.9c7.7,0,15.4,1.9,23.2,5.6l-5.5,13.6
				c-3-1.4-5.9-2.7-8.9-3.7C1578.7,930,1575.8,929.5,1572.9,929.5z"/>
			<path class="st5" d="M1609.7,995.9l0.2-79.2l16.8,0.1l-0.2,79.2L1609.7,995.9z"/>
			<path class="st5" d="M1718.4,956.5c0,13.1-3.3,23.2-9.8,30.2c-6.5,7-15.8,10.5-28,10.5c-12.1,0-21.4-3.6-27.9-10.6
				c-6.5-7.1-9.7-17.2-9.7-30.4c0-13.2,3.3-23.2,9.9-30.2c6.5-6.9,15.9-10.4,28.1-10.4c12.2,0,21.5,3.6,27.9,10.6
				C1715.3,933.3,1718.4,943.4,1718.4,956.5z M1660.6,956.4c0,8.8,1.6,15.5,5,20c3.3,4.5,8.4,6.7,15,6.8c13.4,0,20.1-8.8,20.2-26.6
				c0-17.8-6.6-26.8-19.9-26.8c-6.7,0-11.7,2.2-15.1,6.7C1662.4,940.9,1660.7,947.5,1660.6,956.4z M1672.4,910.6l0-1.5
				c6.2-7.2,10.5-12.6,12.8-16.3l18.5,0.1l0,1.1c-1.9,1.9-5.1,4.7-9.6,8.3c-4.5,3.7-8.1,6.4-10.7,8.2L1672.4,910.6z"/>
			<path class="st5" d="M1804.9,996.5l-21.3-0.1l-34.3-60h-0.5c0.7,10.6,1,18.1,1,22.6l-0.1,37.3l-15,0l0.2-79.2l21.2,0.1l34.2,59.4
				h0.4c-0.5-10.3-0.8-17.6-0.7-21.8l0.1-37.5l15.1,0L1804.9,996.5z"/>
			<path class="st5" d="M1897.4,912.8l11.9,0l-0.3,109.1l-11.9,0L1897.4,912.8z"/>
			<path class="st5" d="M2048,975.2c0,7.1-2.6,12.8-7.8,16.9c-5.2,4.1-12.3,6.1-21.5,6.1c-8.4,0-15.9-1.6-22.4-4.8l0-15.6
				c5.3,2.4,9.9,4.1,13.5,5.1c3.7,1,7.1,1.5,10.1,1.5c3.7,0,6.5-0.7,8.5-2.1c2-1.4,3-3.5,3-6.3c0-1.6-0.4-2.9-1.3-4.1
				c-0.9-1.2-2.1-2.4-3.8-3.5c-1.7-1.1-5.1-2.9-10.2-5.4c-4.8-2.3-8.5-4.5-10.9-6.6c-2.4-2.1-4.3-4.5-5.8-7.3
				c-1.4-2.8-2.2-6-2.1-9.7c0-7,2.4-12.5,7.2-16.5c4.8-4,11.3-6,19.7-6c4.1,0,8,0.5,11.8,1.5c3.7,1,7.6,2.4,11.7,4.1l-5.5,13
				c-4.2-1.7-7.7-3-10.5-3.7c-2.8-0.7-5.5-1.1-8.1-1.1c-3.2,0-5.6,0.7-7.3,2.2c-1.7,1.5-2.6,3.4-2.6,5.8c0,1.5,0.3,2.8,1,3.9
				c0.7,1.1,1.8,2.2,3.3,3.2c1.5,1,5,2.9,10.6,5.6c7.4,3.6,12.4,7.1,15.2,10.7C2046.6,965.7,2048,970,2048,975.2z"/>
			<path class="st5" d="M2132.5,997.4l-21.3-0.1l-34.3-60h-0.5c0.7,10.6,1,18.1,1,22.6l-0.1,37.3l-15,0l0.2-79.2l21.2,0.1l34.2,59.4
				h0.4c-0.5-10.3-0.8-17.6-0.7-21.8l0.1-37.5l15.1,0L2132.5,997.4z"/>
			<path class="st5" d="M2152.4,997.5l0.2-79.2l16.8,0.1l-0.2,79.2L2152.4,997.5z"/>
			<path class="st5" d="M2234.7,997.7l-45.6-0.1l0.2-79.2l45.6,0.1l0,13.8l-28.8-0.1l-0.1,17.4l26.8,0.1l0,13.8l-26.8-0.1l-0.1,20.4
				l28.8,0.1L2234.7,997.7z"/>
			<path class="st5" d="M2298,975.9c0,7.1-2.6,12.8-7.8,16.9c-5.2,4.1-12.3,6.1-21.5,6.1c-8.4,0-15.9-1.6-22.4-4.8l0-15.6
				c5.3,2.4,9.9,4.1,13.5,5.1c3.7,1,7.1,1.5,10.1,1.5c3.7,0,6.5-0.7,8.5-2.1c2-1.4,3-3.5,3-6.3c0-1.6-0.4-2.9-1.3-4.2
				c-0.9-1.2-2.1-2.4-3.8-3.5c-1.7-1.1-5.1-2.9-10.2-5.4c-4.8-2.3-8.5-4.5-10.9-6.6c-2.4-2.1-4.3-4.5-5.8-7.3
				c-1.4-2.8-2.2-6-2.1-9.7c0-7,2.4-12.5,7.2-16.5c4.8-4,11.3-6,19.7-6c4.1,0,8,0.5,11.8,1.5c3.7,1,7.6,2.4,11.7,4.1l-5.5,13
				c-4.2-1.8-7.7-3-10.5-3.7c-2.8-0.7-5.5-1.1-8.1-1.1c-3.2,0-5.6,0.7-7.3,2.2c-1.7,1.5-2.6,3.4-2.6,5.8c0,1.5,0.3,2.8,1,3.9
				c0.7,1.1,1.8,2.2,3.3,3.2c1.5,1,5,2.9,10.6,5.6c7.4,3.6,12.4,7.1,15.2,10.7C2296.7,966.4,2298,970.7,2298,975.9z"/>
			<path class="st5" d="M2390.9,998.1l-55.3-0.2l0-11.6l19.9-20c5.9-6,9.8-10.2,11.6-12.5c1.8-2.3,3.1-4.5,3.9-6.5
				c0.8-2,1.2-4,1.2-6.2c0-3.2-0.9-5.5-2.6-7.1c-1.7-1.6-4.1-2.3-7-2.3c-3.1,0-6,0.7-8.9,2.1c-2.9,1.4-5.9,3.4-9.1,6l-9.1-10.8
				c3.9-3.3,7.1-5.6,9.7-7c2.6-1.4,5.4-2.4,8.4-3.1c3-0.7,6.4-1.1,10.2-1.1c4.9,0,9.3,0.9,13.1,2.7s6.7,4.4,8.8,7.6
				c2.1,3.2,3.1,7,3.1,11.2c0,3.6-0.7,7.1-1.9,10.3c-1.3,3.2-3.3,6.5-6,9.8c-2.7,3.4-7.4,8.1-14.2,14.3l-10.2,9.6v0.8l34.5,0.1
				L2390.9,998.1z"/>
			<path class="st5" d="M2426.4,918c7.6,0,13.7,1.8,18.3,5.2c4.6,3.5,6.9,8.1,6.9,14c0,4-1.1,7.6-3.4,10.8c-2.2,3.2-5.9,6-10.9,8.4
				c5.9,3.2,10.1,6.5,12.7,10c2.6,3.5,3.8,7.2,3.8,11.4c0,6.5-2.6,11.7-7.7,15.7c-5.1,3.9-11.8,5.9-20.1,5.9
				c-8.7,0-15.5-1.9-20.4-5.6c-4.9-3.7-7.4-8.9-7.4-15.7c0-4.5,1.2-8.5,3.6-12c2.4-3.5,6.3-6.6,11.6-9.2c-4.5-2.9-7.7-5.9-9.7-9.2
				c-2-3.2-3-6.8-3-10.7c0-5.7,2.4-10.2,7.1-13.7C2412.7,919.8,2418.9,918,2426.4,918z M2413.9,977.1c0,3.1,1.1,5.5,3.2,7.3
				c2.2,1.7,5.1,2.6,8.9,2.6c4.2,0,7.3-0.9,9.3-2.6c2.1-1.8,3.1-4.1,3.1-7.1c0-2.4-1-4.7-3-6.8c-2-2.1-5.3-4.4-9.9-6.8
				C2417.8,967.3,2413.9,971.7,2413.9,977.1z M2426.3,930.3c-2.9,0-5.2,0.7-6.9,2.2c-1.8,1.5-2.6,3.4-2.6,5.9c0,2.2,0.7,4.1,2.1,5.8
				c1.4,1.7,3.9,3.5,7.5,5.3c3.5-1.6,6-3.3,7.4-5.1c1.4-1.7,2.1-3.7,2.1-6c0-2.5-0.9-4.5-2.7-5.9
				C2431.4,931,2429.1,930.3,2426.3,930.3z"/>
			<path class="st5" d="M2514.6,937c0,4.9-1.5,9.2-4.5,12.6c-3,3.5-7.2,5.8-12.6,7.1v0.3c6.4,0.8,11.2,2.8,14.5,5.9
				c3.3,3.1,4.9,7.3,4.9,12.5c0,7.6-2.8,13.5-8.3,17.8c-5.5,4.2-13.4,6.3-23.7,6.3c-8.6,0-16.2-1.5-22.8-4.3l0-14.2
				c3.1,1.6,6.4,2.8,10.1,3.8c3.7,1,7.3,1.5,10.9,1.5c5.5,0,9.6-0.9,12.2-2.8c2.6-1.9,4-4.9,4-9c0-3.7-1.5-6.4-4.5-7.9
				c-3-1.6-7.9-2.3-14.5-2.4l-6,0l0-12.8l6.1,0c6.1,0,10.6-0.8,13.5-2.4c2.8-1.6,4.3-4.3,4.3-8.2c0-6-3.7-9-11.2-9
				c-2.6,0-5.2,0.4-7.9,1.3c-2.7,0.8-5.7,2.3-9,4.5l-7.7-11.6c7.2-5.2,15.8-7.8,25.8-7.7c8.2,0,14.7,1.7,19.4,5
				C2512.3,926.5,2514.6,931.1,2514.6,937z"/>
			<path class="st5" d="M2580.8,998.7l-55.3-0.2l0-11.6l19.9-20c5.9-6,9.8-10.2,11.6-12.5c1.8-2.3,3.1-4.5,3.9-6.5
				c0.8-2,1.2-4,1.2-6.2c0-3.2-0.9-5.5-2.6-7.1c-1.7-1.6-4.1-2.3-7-2.3c-3.1,0-6,0.7-8.9,2.1c-2.9,1.4-5.9,3.4-9.1,6l-9.1-10.8
				c3.9-3.3,7.1-5.6,9.7-7c2.6-1.4,5.4-2.4,8.4-3.1c3-0.7,6.4-1.1,10.2-1.1c4.9,0,9.3,0.9,13.1,2.7s6.7,4.4,8.8,7.6
				c2.1,3.3,3.1,7,3.1,11.2c0,3.6-0.7,7.1-1.9,10.3c-1.3,3.2-3.3,6.5-6,9.8c-2.7,3.3-7.4,8.1-14.2,14.3l-10.2,9.6v0.8l34.5,0.1
				L2580.8,998.7z"/>
		</g>
	</g>
</g>
</svg>
